<?xml version="1.0" standalone="no"?>
<!DOCTYPE svg PUBLIC "-//W3C//DTD SVG 1.1//EN" "http://www.w3.org/Graphics/SVG/1.1/DTD/svg11.dtd" >
<svg>
<metadata>
Created by FontForge 20090622 at Sat May 23 12:53:10 2015
 By deploy user
Copyright (C) 1990 ParaGraph JV.
</metadata>
<defs>
<font id="AdverGothic" horiz-adv-x="0" >
  <font-face 
    font-family="Adver Gothic"
    font-weight="400"
    font-stretch="normal"
    units-per-em="2048"
    panose-1="2 11 5 0 0 0 0 0 0 0"
    ascent="1638"
    descent="-410"
    x-height="1180"
    cap-height="1520"
    bbox="-29 -459 3428 1864"
    underline-thickness="56"
    underline-position="-196"
    unicode-range="U+0020-U+2219"
  />
<missing-glyph horiz-adv-x="1536" 
d="M256 0v1280h1024v-1280h-1024zM1247 33v1214h-958v-1214h958z" />
    <glyph glyph-name=".notdef" horiz-adv-x="1536" 
d="M256 0v1280h1024v-1280h-1024zM1247 33v1214h-958v-1214h958z" />
    <glyph glyph-name=".null" 
 />
    <glyph glyph-name="nonmarkingreturn" 
 />
    <glyph glyph-name="space" unicode=" " horiz-adv-x="719" 
 />
    <glyph glyph-name="exclam" unicode="!" horiz-adv-x="575" 
d="M72 1520h432l-68 -1067h-295zM84 170q0 54 27.5 101t75 75.5t102.5 28.5t101.5 -27.5t74 -74.5t27.5 -103t-27.5 -103t-74 -74.5t-101.5 -27.5t-102.5 28.5t-75 75.5t-27.5 101z" />
    <glyph glyph-name="quotedbl" unicode="&#x22;" horiz-adv-x="1042" 
d="M115 1520h338l-115 -539h-109zM590 1520h338l-115 -539h-108z" />
    <glyph glyph-name="numbersign" unicode="#" horiz-adv-x="1896" 
d="M1186 0h-187l72 381h-397l-72 -381h-188l71 381h-370l37 174h370l78 410h-371l37 176h371l72 379h186l-72 -379h398l71 379h189l-74 -379h375l-37 -176h-373l-78 -410h371l-37 -174h-371zM1108 555l76 410h-398l-75 -410h397z" />
    <glyph glyph-name="dollar" unicode="$" horiz-adv-x="1485" 
d="M643 1655h229v-107q120 -13 222.5 -55t218.5 -123l-160 -264q-126 87 -281 115v-273q170 -36 278.5 -96t166.5 -131t80 -143.5t22 -141.5q0 -81 -30 -163.5t-95.5 -151.5t-170 -112t-251.5 -44v-98h-229v98q-298 23 -598 185l158 280l166 -80t120 -43.5t154 -30.5v367
q-159 39 -275.5 96.5t-184.5 152.5t-68 236q0 150 76 245.5t196.5 138t255.5 42.5v101zM643 1237h-29q-40 0 -76 -29t-36 -82q0 -50 33 -81t108 -44v236zM872 596v-330q63 0 109.5 39t46.5 105q0 145 -156 186z" />
    <glyph glyph-name="percent" unicode="%" horiz-adv-x="2456" 
d="M66 1135q0 85 32 165.5t92 145.5t144 103t184 38q93 0 176 -35t146 -98t98 -144.5t35 -174.5q0 -124 -62.5 -229t-167 -165.5t-225.5 -60.5q-119 0 -223.5 60.5t-166.5 165.5t-62 229zM315 1135q0 -91 62 -148t141 -57q84 0 144.5 59.5t60.5 145.5q0 56 -27.5 102.5
t-75 73t-102.5 26.5t-101 -26t-74 -72.5t-28 -103.5zM1540 1632h272l-897 -1814h-272zM1483 385q0 124 62.5 229t166.5 165.5t225 60.5q119 0 223 -60.5t167 -165.5t63 -229q0 -93 -34.5 -174.5t-97 -144.5t-146 -98.5t-175.5 -35.5q-123 0 -228 61.5t-165.5 166
t-60.5 225.5zM1733 385q0 -85 60 -144t144 -59q83 0 143 58t60 145q0 57 -27 104t-74.5 74t-101.5 27q-85 0 -144.5 -59.5t-59.5 -145.5z" />
    <glyph glyph-name="ampersand" unicode="&#x26;" horiz-adv-x="1782" 
d="M1386 811l265 -240l-97.5 -106.5t-67 -68l-44.5 -42.5l340 -354h-512l-123 129l-31 -21t-26 -16q-221 -127 -457 -127q-173 0 -302 54.5t-197 151.5t-68 220t46 213.5t127.5 151.5t198.5 108q-153 133 -153 295q0 107 55 197t166.5 144t269.5 54q131 0 234.5 -45.5
t162 -133.5t58.5 -212q0 -83 -50 -177t-202 -175l203 -209q116 105 204 209zM705 1083l69 -75q58 29 87.5 59t29.5 82q0 39 -29 75t-78 36q-41 0 -75.5 -28.5t-34.5 -74.5q0 -15 3 -25.5t8 -20t9.5 -15zM909 379l-245 260q-55 -23 -97.5 -51.5t-68 -67.5t-25.5 -92
q0 -87 63 -116t134 -29q56 0 122.5 26t116.5 70z" />
    <glyph glyph-name="quotesingle" unicode="'" horiz-adv-x="567" 
d="M115 1520h338l-115 -539h-109z" />
    <glyph glyph-name="parenleft" unicode="(" horiz-adv-x="793" 
d="M403 1520h332q-67 -139 -114.5 -259.5t-77.5 -228t-45 -209.5t-15 -207q0 -104 15 -206.5t45 -210t76.5 -225t115.5 -261.5h-332q-87 124 -159.5 275t-115 313.5t-42.5 314.5q0 141 37 292.5t105 300.5t175 311z" />
    <glyph glyph-name="parenright" unicode=")" horiz-adv-x="793" 
d="M57 1520h332q318 -479 318 -904q0 -152 -42.5 -314.5t-114 -311t-161.5 -277.5h-332q69 144 116 261t77.5 224.5t44.5 210t14 207.5q0 104 -14 207t-44.5 210.5t-78.5 227.5t-115 259z" />
    <glyph glyph-name="asterisk" unicode="*" horiz-adv-x="834" 
d="M383 1298l-57 119v137h180v-137l-55 -119l41 -24l75 108l117 68l92 -156l-117 -67l-133 -13v-49l133 -10l117 -68l-92 -157l-117 67l-75 111l-41 -25l55 -120v-136h-180v136l57 120l-43 25l-76 -111l-117 -67l-90 157l117 68l131 10v49l-131 13l-117 67l90 156l117 -68
l76 -108z" />
    <glyph glyph-name="plus" unicode="+" horiz-adv-x="1548" 
d="M631 72v544h-545v287h545v545h287v-545h544v-287h-544v-544h-287z" />
    <glyph glyph-name="comma" unicode="," horiz-adv-x="580" 
d="M356 -145h-254q28 25 61 69.5t46 77.5q-59 17 -91 61t-32 105q0 93 61 150t142 57q64 0 110 -29t70.5 -75.5t24.5 -100.5q0 -84 -36 -156t-102 -159z" />
    <glyph glyph-name="hyphen" unicode="-" horiz-adv-x="852" 
d="M86 770h680v-340h-680v340z" />
    <glyph glyph-name="period" unicode="." horiz-adv-x="580" 
d="M86 170q0 84 59.5 144.5t143.5 60.5q53 0 101 -28t76 -75.5t28 -101.5q0 -84 -60.5 -144.5t-144.5 -60.5q-57 0 -103 27.5t-73 75t-27 102.5z" />
    <glyph glyph-name="slash" unicode="/" horiz-adv-x="1112" 
d="M868 1632h273l-897 -1814h-273z" />
    <glyph glyph-name="zero" unicode="0" horiz-adv-x="1583" 
d="M86 760q0 214 62.5 370t166 248.5t227 134t249.5 41.5q140 0 266.5 -45.5t225.5 -141.5t156.5 -249t57.5 -358q0 -204 -57 -357t-156.5 -250t-226 -142.5t-266.5 -45.5q-126 0 -248 41t-227 135t-167.5 249.5t-62.5 369.5zM485 760q0 -176 45 -283.5t114.5 -150.5
t146.5 -43q131 0 219 114.5t88 362.5q0 166 -42 274t-112.5 155.5t-152.5 47.5q-77 0 -146.5 -43t-114.5 -150.5t-45 -283.5z" />
    <glyph glyph-name="one" unicode="1" horiz-adv-x="897" 
d="M754 1520v-1520h-432v1090h-236v247q140 2 239 42.5t148 140.5h281z" />
    <glyph glyph-name="two" unicode="2" horiz-adv-x="1415" 
d="M496 954l-385 97q28 140 110.5 255t221.5 181.5t331 66.5q156 0 268 -43t178.5 -114t97 -158.5t30.5 -181.5q0 -145 -58.5 -238.5t-142 -146.5t-236.5 -121q-160 -71 -223.5 -114t-91.5 -97h770v-340h-1317q15 194 82 332.5t196.5 242.5t336.5 199q108 50 154.5 74.5
t88 71t41.5 112.5q0 71 -39.5 125.5t-158.5 54.5q-216 0 -254 -258z" />
    <glyph glyph-name="three" unicode="3" horiz-adv-x="1376" 
d="M365 1014l-322 129q50 110 136 203t217.5 150.5t305.5 57.5q172 0 297.5 -54t190.5 -148t65 -209q0 -128 -66 -205t-157 -115v-10q72 -23 135 -72t103.5 -133t40.5 -194q0 -99 -50.5 -200.5t-190 -175t-384.5 -73.5q-72 0 -148 8.5t-165.5 41t-178.5 100t-169 184.5
l299 180q144 -196 340 -196q110 0 178.5 48.5t68.5 131.5q0 93 -74 139.5t-192 46.5h-141v295h176q44 0 84 8t73 38t33 89q0 34 -17.5 70t-60 62t-112.5 26q-109 0 -183.5 -56.5t-131.5 -166.5z" />
    <glyph glyph-name="four" unicode="4" horiz-adv-x="1470" 
d="M287 1520h399q-74 -215 -120.5 -422.5t-71.5 -448.5h311v729l385 142v-871h215v-342h-215v-307h-385v307h-739q10 151 25 285t42 292.5t63.5 310t90.5 325.5z" />
    <glyph glyph-name="five" unicode="5" horiz-adv-x="1370" 
d="M1167 1520v-318h-667l-23 -190q137 53 281 53q132 0 234 -42t171.5 -118t105.5 -180t36 -223q0 -135 -62 -258t-196 -201t-332 -78q-129 0 -239.5 23.5t-223 99.5t-207.5 219l303 189q33 -76 104.5 -144.5t196.5 -68.5q79 0 138 33t88.5 88.5t29.5 119.5q0 66 -35 122.5
t-102.5 90t-153.5 33.5q-168 0 -301 -129l-213 141l101 738h966z" />
    <glyph glyph-name="six" unicode="6" horiz-adv-x="1481" 
d="M1225 1489v-340q-158 88 -320 88q-192 0 -316 -118t-124 -398q0 -250 93 -343t214 -93q130 0 192 62t62 153q0 101 -65.5 163t-188.5 62q-116 0 -225 -82q-2 29 -2 78q0 160 47 256q86 37 162.5 51t138.5 14q165 0 283.5 -68.5t178.5 -192.5t60 -281q0 -118 -41 -217
t-120.5 -169.5t-197 -109.5t-263.5 -39q-123 0 -281.5 44t-302 218.5t-143.5 517.5q0 67 20 184.5t93.5 263.5t234.5 253.5t417 107.5q202 0 394 -65z" />
    <glyph glyph-name="seven" unicode="7" horiz-adv-x="1364" 
d="M25 1520h1339q-41 -163 -93 -324.5t-126.5 -350t-169 -395.5t-217.5 -450h-449q121 220 273.5 541.5t257.5 638.5h-428v-277h-387v617z" />
    <glyph glyph-name="eight" unicode="8" horiz-adv-x="1419" 
d="M348 817v8q-62 26 -109.5 69t-76.5 105.5t-29 139.5q0 104 56.5 198.5t186.5 155.5t333 61q204 0 333 -61t185.5 -155.5t56.5 -198.5q0 -126 -63 -201.5t-150 -112.5v-8q83 -21 146.5 -70t100 -123t36.5 -167q0 -101 -41.5 -208.5t-184 -195.5t-419.5 -88
q-247 0 -391.5 75t-198 186t-53.5 231q0 151 84 242.5t198 117.5zM520 1092q0 -57 44 -101.5t145 -44.5q77 0 133.5 35.5t56.5 110.5q0 74 -56.5 109.5t-133.5 35.5q-102 0 -145.5 -44t-43.5 -101zM457 479q0 -85 65.5 -140.5t186.5 -55.5t186.5 55t65.5 141q0 83 -66 139
t-186 56t-186 -56t-66 -139z" />
    <glyph glyph-name="nine" unicode="9" horiz-adv-x="1481" 
d="M256 31v340q149 -88 319 -88q228 0 334.5 140.5t106.5 375.5q0 172 -49 270t-118.5 132t-139.5 34q-148 0 -201 -69.5t-53 -145.5q0 -66 29 -117t87 -79.5t138 -28.5q121 0 223 82q2 -27 2 -86q0 -157 -45 -248q-153 -66 -301 -66q-165 0 -283.5 69t-178.5 192t-60 282
q0 242 170 388t475 146q119 0 272 -44t292.5 -218.5t139.5 -517.5q0 -167 -47.5 -311.5t-143 -257t-242 -176.5t-333.5 -64q-206 0 -393 66z" />
    <glyph glyph-name="colon" unicode=":" horiz-adv-x="582" 
d="M86 795q0 45 24.5 92t71.5 78.5t109 31.5t109 -31.5t71.5 -78.5t24.5 -92t-24.5 -93.5t-71 -80t-109.5 -31.5q-93 0 -149 66.5t-56 138.5zM86 170q0 50 26 97.5t73.5 77.5t105.5 30q54 0 100.5 -27.5t75.5 -75t29 -102.5t-29 -102.5t-75.5 -75t-100.5 -27.5t-101 27.5
t-75.5 75t-28.5 102.5z" />
    <glyph glyph-name="semicolon" unicode=";" horiz-adv-x="580" 
d="M86 795q0 55 26.5 101.5t73 73.5t103.5 27q62 0 109 -31.5t71.5 -78.5t24.5 -92t-24.5 -93.5t-71 -80t-109.5 -31.5q-56 0 -103 27.5t-73.5 75t-26.5 102.5zM358 -145h-254q78 86 105 147q-60 17 -91.5 65t-31.5 101q0 75 51 141t152 66q64 0 110 -29t70.5 -75.5
t24.5 -100.5q0 -58 -20.5 -113t-47.5 -99t-68 -103z" />
    <glyph glyph-name="less" unicode="&#x3c;" horiz-adv-x="1579" 
d="M55 688l1403 596l66 -170l-973 -426l973 -426l-66 -170z" />
    <glyph glyph-name="equal" unicode="=" horiz-adv-x="1548" 
d="M86 1206h1376v-286h-1376v286zM86 600h1376v-287h-1376v287z" />
    <glyph glyph-name="greater" unicode="&#x3e;" horiz-adv-x="1579" 
d="M1524 688l-1403 -596l-66 170l973 426l-973 426l66 170z" />
    <glyph glyph-name="question" unicode="?" horiz-adv-x="1212" 
d="M57 989v78q0 107 47 217.5t167 190t321 79.5q170 0 290.5 -53t182 -149.5t61.5 -221.5q0 -93 -33 -161t-79.5 -110.5t-116.5 -90.5q-53 -37 -90.5 -75t-61.5 -96t-24 -144h-340v86q0 92 24.5 158.5t64 116.5t104 103l75.5 62q36 32 57 63t21 74q0 119 -137 119
q-172 0 -172 -199q0 -32 2 -47h-363zM354 170q0 84 59.5 144.5t143.5 60.5q55 0 102.5 -28.5t75 -75.5t27.5 -101q0 -83 -60 -144t-145 -61q-57 0 -103 27.5t-73 75t-27 102.5z" />
    <glyph glyph-name="at" unicode="@" horiz-adv-x="2157" 
d="M1489 88l102 -184q-130 -84 -249 -115t-263 -31q-231 0 -413.5 75t-308.5 210t-190.5 313.5t-64.5 376.5q0 220 76.5 400.5t213.5 310t314 197t373 67.5q263 0 453.5 -89t305 -235t165.5 -315t51 -336q0 -137 -57.5 -263t-170 -205t-263.5 -79q-71 0 -127.5 18t-96.5 87
q-1 -1 -1.5 -2.5t-2.5 -3.5q-18 -26 -56 -52t-102.5 -43.5t-152.5 -17.5q-151 0 -256 65t-159 185t-54 280q0 108 30.5 203t88.5 168.5t143.5 115.5t190.5 42q175 0 268 -88l2 53h266v-670q0 -72 13.5 -95t52.5 -23q107 0 166 98t59 227q0 189 -60.5 336t-168 245.5
t-241.5 145.5t-286 47q-200 0 -374.5 -97t-278.5 -273t-104 -404q0 -188 62 -335t170.5 -245t244.5 -146t280 -48q229 0 410 129zM1270 698q0 116 -30 185t-78.5 97t-108.5 28q-122 0 -175 -92t-53 -218q0 -156 61.5 -230.5t164.5 -74.5q137 0 178 103.5t41 201.5z" />
    <glyph glyph-name="A" unicode="A" horiz-adv-x="1477" 
d="M532 1520h412q113 -179 200 -376t153 -401.5t110 -393t70 -349.5h-433q-8 41 -20 113q-14 88 -27 143h-428q32 153 78 317h264q-25 100 -58 189.5t-65.5 161l-46.5 100.5q-73 -159 -132.5 -330t-104.5 -351.5t-72 -342.5h-432q36 188 92.5 402.5t129 425t150.5 387
t160 305.5z" />
    <glyph glyph-name="B" unicode="B" horiz-adv-x="1528" 
d="M123 1520h782q145 0 243 -39t151.5 -98.5t75.5 -126.5t22 -132q0 -109 -62 -186.5t-153 -118.5v-4q157 -55 218.5 -157t61.5 -236q0 -84 -32 -159t-98 -133.5t-173.5 -94t-253.5 -35.5h-782v1520zM635 635v317h158q196 0 196 129q0 77 -54.5 99t-152.5 22h-227v-885h238
q128 0 176.5 49t48.5 107q0 103 -67 132.5t-163 29.5h-153z" />
    <glyph glyph-name="C" unicode="C" horiz-adv-x="1237" 
d="M1194 1520v-330q-107 31 -205 31q-115 0 -204 -33t-150 -94t-92 -145t-31 -185q0 -142 45 -235t116.5 -142.5t145 -67.5t135.5 -18q121 0 240 39v-340q-154 -35 -332 -35q-279 0 -458.5 114.5t-258.5 295.5t-79 389q0 232 100 411.5t290.5 279t450.5 99.5q141 0 287 -34z
" />
    <glyph glyph-name="D" unicode="D" horiz-adv-x="1565" 
d="M123 1520h385q152 0 301.5 -17.5t310.5 -89.5t270 -231.5t109 -417.5q0 -221 -77 -378t-204 -249t-276 -132t-307 -40v342q222 0 328 125q92 111 92 328q0 200 -115.5 310t-316.5 110h-68v-1180h-432v1520z" />
    <glyph glyph-name="E" unicode="E" horiz-adv-x="1204" 
d="M1112 1520v-340h-557v-840h596v-340h-1028v1520h989zM1204 1055v-340h-569v340h569z" />
    <glyph glyph-name="F" unicode="F" horiz-adv-x="1202" 
d="M1110 1520v-340h-555v-1180h-432v1520h987zM1202 1055v-340h-567v340h567z" />
    <glyph glyph-name="G" unicode="G" horiz-adv-x="1563" 
d="M825 1022h652v-959q-66 -34 -138 -55.5t-160.5 -32t-201.5 -10.5q-301 0 -505.5 101.5t-305 281t-100.5 408.5q0 232 100.5 413.5t299.5 283t484 101.5q64 0 148 -7t190 -27v-338q-160 30 -282 30q-112 0 -201.5 -26t-155.5 -81t-102.5 -142t-36.5 -205q0 -123 41 -211.5
t111 -141.5t150.5 -75.5t164.5 -22.5q27 0 67 4v394h-219v317z" />
    <glyph glyph-name="H" unicode="H" horiz-adv-x="1608" 
d="M123 1520h432v-1520h-432v1520zM1053 1520h432v-1520h-432v750h-418v342h418v428z" />
    <glyph glyph-name="I" unicode="I" horiz-adv-x="678" 
d="M123 1520h432v-1520h-432v1520z" />
    <glyph glyph-name="J" unicode="J" horiz-adv-x="903" 
d="M356 1520h432v-953q0 -188 -48 -308.5t-126 -184.5t-165 -86.5t-179 -22.5q-166 0 -299 35v340q77 -33 162 -33q73 0 120.5 19t75 83.5t27.5 188.5v922z" />
    <glyph glyph-name="K" unicode="K" horiz-adv-x="1520" 
d="M123 1520h432v-308q110 36 228 121t182 187h518q-28 -58 -82.5 -133.5t-118 -143.5t-138.5 -129t-151 -102q102 -105 188 -228t152 -253t114.5 -268t72.5 -263h-445q-23 128 -72.5 250.5t-110.5 225t-127.5 188t-135.5 157.5q-36 -19 -74 -30v-791h-432v1520z" />
    <glyph glyph-name="L" unicode="L" horiz-adv-x="1116" 
d="M123 1520h432v-1180h590v-340h-1022v1520z" />
    <glyph glyph-name="M" unicode="M" horiz-adv-x="1956" 
d="M1114 252h-272q-12 73 -33.5 154.5t-54.5 167.5t-84 172t-115 147v-893h-432v1520h432q123 -111 250.5 -313.5t169.5 -346.5h8q18 70 61.5 159.5t104.5 185.5t126.5 178.5t125.5 136.5h432v-1520h-432v893q-59 -63 -109.5 -140.5t-99.5 -204t-78 -296.5z" />
    <glyph glyph-name="N" unicode="N" horiz-adv-x="1706" 
d="M123 1520h432q94 -41 208.5 -115t214 -156t173.5 -159v430h432v-1520h-432v496q-54 66 -126.5 140t-158 148.5t-161.5 132t-150 101.5v-1018h-432v1520z" />
    <glyph glyph-name="O" unicode="O" horiz-adv-x="1708" 
d="M66 760q0 192 58.5 341t167 251t250.5 152t312 50q167 0 310 -50.5t251 -152t167.5 -250t59.5 -341.5t-59 -341t-167.5 -249.5t-251 -153t-310.5 -51.5q-228 0 -406 92t-280 271t-102 432zM510 760q0 -196 84.5 -323.5t259.5 -127.5q173 0 258.5 127t85.5 324
q0 124 -35.5 226t-113 163t-195.5 61q-121 0 -197.5 -60t-111.5 -161.5t-35 -228.5z" />
    <glyph glyph-name="P" unicode="P" horiz-adv-x="1548" 
d="M123 1520h706q238 0 385.5 -85.5t212 -220.5t64.5 -286q0 -125 -39.5 -230.5t-119.5 -186t-194.5 -124t-260.5 -43.5q-124 0 -242 31v340q69 -31 156 -31q75 0 133 27.5t90.5 83t32.5 135.5q0 46 -16.5 99.5t-83 102t-197.5 48.5h-195v-1180h-432v1520z" />
    <glyph glyph-name="Q" unicode="Q" horiz-adv-x="1708" 
d="M1626 123l-285 -268q-76 45 -190 75.5t-209 40.5q-62 -4 -90 -4q-200 0 -379 79t-293 257.5t-114 456.5q0 192 58.5 341t167 251t250.5 152t312 50q227 0 406.5 -90t280.5 -269.5t101 -434.5q0 -218 -66.5 -351t-158.5 -214q33 -5 113 -31q60 -21 96 -41zM510 762
q0 -197 65.5 -298t141 -128t137.5 -27q174 0 259 127.5t85 325.5q0 124 -35.5 226t-113 163t-195.5 61q-121 0 -197.5 -60t-111.5 -161.5t-35 -228.5z" />
    <glyph glyph-name="R" unicode="R" horiz-adv-x="1550" 
d="M123 1520h608q180 0 339 -30t287 -150.5t128 -362.5q0 -157 -64 -263.5t-161 -163.5t-203 -75q142 -72 233 -101t164 -34v-375q-99 20 -214.5 59.5t-228.5 92.5t-194 98.5t-182 110.5v393q74 -23 145 -23q111 0 185.5 59t74.5 189q0 107 -53 159t-116 64.5t-134 12.5
h-182v-1180h-432v1520z" />
    <glyph glyph-name="S" unicode="S" horiz-adv-x="1217" 
d="M1139 1520v-340h-437q-124 0 -124 -88q0 -31 17.5 -57.5t54 -56.5t120.5 -89q146 -104 220 -166.5t119.5 -144.5t45.5 -197q0 -165 -93.5 -250t-207.5 -108t-221 -23h-572v340h480q129 0 129 86q0 27 -10 47.5t-26 37.5t-58 50l-72 57l-171 133t-125 114t-84 128t-32 162
q0 103 46.5 185t152.5 131t272 49h576z" />
    <glyph glyph-name="T" unicode="T" horiz-adv-x="1157" 
d="M0 1520h1157v-340h-362v-1180h-433v1180h-362v340z" />
    <glyph glyph-name="U" unicode="U" horiz-adv-x="1503" 
d="M115 1520h432v-945q0 -109 37 -188.5t168 -79.5q129 0 166.5 79.5t37.5 188.5v945h433v-934q0 -90 -16 -183t-77.5 -196t-194.5 -172.5t-349 -69.5q-383 0 -510 192.5t-127 428.5v934z" />
    <glyph glyph-name="V" unicode="V" horiz-adv-x="1442" 
d="M0 1520h451q61 -309 114.5 -490.5t155.5 -417.5q59 125 111 275.5t91 306t68 326.5h451q-44 -235 -127.5 -503.5t-195.5 -531t-240 -485.5h-316q-201 376 -321 687.5t-169 503t-73 329.5z" />
    <glyph glyph-name="W" unicode="W" horiz-adv-x="2075" 
d="M0 1520h444q18 -172 72 -390.5t113 -377.5h8q49 141 86 258l33 98l37 113q18 -94 32.5 -154.5t37.5 -133.5t43.5 -128t58.5 -143q-26 -92 -65.5 -212t-88.5 -244t-88 -206h-225q-82 165 -152.5 336.5t-143.5 390t-124 418.5t-78 375zM1630 1520h445q-30 -166 -70 -331
t-97.5 -349.5t-143.5 -399t-203 -440.5h-238q-83 182 -145.5 335.5t-130 344t-128 406.5t-104.5 434h445q19 -116 39 -215.5t42 -187.5t52 -183t63 -182h10q26 78 52 173t55.5 244t56.5 351z" />
    <glyph glyph-name="X" unicode="X" horiz-adv-x="1520" 
d="M1520 0h-453q-26 94 -74.5 197.5t-110 198.5t-122.5 157q-94 -101 -178.5 -251.5t-128.5 -301.5h-453q48 154 121.5 301t170.5 280.5t214 239.5q-199 220 -287 393.5t-123 305.5h467q40 -137 80.5 -224.5t116.5 -187.5q54 70 108.5 172.5t87.5 239.5h467
q-41 -170 -150.5 -354t-256.5 -345q89 -80 167.5 -179.5t142 -207t112.5 -217t82 -217.5z" />
    <glyph glyph-name="Y" unicode="Y" horiz-adv-x="1411" 
d="M967 1520h444q-48 -387 -200.5 -731t-431 -572.5t-675.5 -251.5v369q90 15 167 42.5t147.5 69.5t126.5 95q-105 97 -193 210.5t-161 246t-119.5 260t-71.5 262.5h453q20 -116 71.5 -236.5t122 -223t146.5 -173.5q40 72 77 184t62.5 231.5t34.5 217.5z" />
    <glyph glyph-name="Z" unicode="Z" horiz-adv-x="1227" 
d="M78 1520h1120q-28 -144 -88 -303t-137.5 -306.5t-179.5 -299.5t-205 -271h610v-340h-1169v344q82 76 174.5 179.5t176.5 215t150.5 224.5t106.5 217h-559v340z" />
    <glyph glyph-name="bracketleft" unicode="[" horiz-adv-x="858" 
d="M86 1520h657v-183h-317v-1441h317v-183h-657v1807z" />
    <glyph glyph-name="backslash" unicode="\" horiz-adv-x="1112" 
d="M244 1520l897 -1807h-273l-897 1807h273z" />
    <glyph glyph-name="bracketright" unicode="]" horiz-adv-x="858" 
d="M115 1520h657v-1807h-657v183h317v1441h-317v183z" />
    <glyph glyph-name="asciicircum" unicode="^" horiz-adv-x="918" 
d="M459 1333l-152 -151h-186l338 338l338 -338h-187z" />
    <glyph glyph-name="underscore" unicode="_" horiz-adv-x="1348" 
d="M0 -287v205h1348v-205h-1348z" />
    <glyph glyph-name="grave" unicode="`" horiz-adv-x="565" 
d="M29 1520h389l119 -250h-273z" />
    <glyph glyph-name="a" unicode="a" horiz-adv-x="1325" 
d="M211 874v308q201 24 364 24q242 0 438.5 -112.5t196.5 -448.5v-645h-665q-170 0 -324.5 67t-154.5 295q0 98 46.5 186.5t155 144t279.5 55.5h160q38 -72 38 -201v-47h-112q-71 0 -119.5 -20.5t-48.5 -86.5q0 -45 34.5 -71.5t90.5 -26.5h233v272q0 95 -16.5 165
t-90.5 124.5t-224 54.5q-137 0 -281 -37z" />
    <glyph glyph-name="b" unicode="b" horiz-adv-x="1286" 
d="M510 1520v-1225q126 0 218.5 72t92.5 260q0 159 -73 219t-158 65v295q181 0 303.5 -45t193.5 -121.5t102.5 -179.5t31.5 -231q0 -213 -79 -344.5t-198.5 -191.5t-237 -76.5t-245.5 -16.5h-338v1520h387z" />
    <glyph glyph-name="c" unicode="c" horiz-adv-x="958" 
d="M907 1180v-308q-78 39 -168 39q-116 0 -195 -75t-79 -252q0 -188 90.5 -252t192.5 -64q55 0 96 8.5t86 30.5v-307q-55 -16 -97 -21.5t-106 -5.5q-170 0 -296 48t-207 133.5t-119.5 195.5t-38.5 234q0 119 32.5 227t106 198t197.5 143.5t294 53.5q123 0 211 -26z" />
    <glyph glyph-name="d" unicode="d" horiz-adv-x="1317" 
d="M807 1520h387v-1520h-336q-124 0 -241 13.5t-246.5 69.5t-217 182.5t-87.5 336.5q0 151 51.5 264.5t143 189t212 113t256.5 37.5v-295q-115 -3 -189.5 -87t-74.5 -224q0 -178 102 -241.5t240 -63.5v1225z" />
    <glyph glyph-name="e" unicode="e" horiz-adv-x="1354" 
d="M1178 322v-308q-184 -41 -381 -41q-168 0 -304.5 44t-233 128t-145 198.5t-48.5 254.5q0 196 85 333.5t232.5 206t333.5 68.5q142 0 273 -46.5t226 -190t95 -406.5q0 -49 -2 -74h-729q-37 52 -37 123q0 62 12 105h383q-6 194 -213 194q-132 0 -197 -80.5t-65 -214.5
q0 -94 37.5 -171t132.5 -127t256 -50q149 0 289 54z" />
    <glyph glyph-name="f" unicode="f" horiz-adv-x="729" 
d="M143 0v842h-114v295h114q17 149 117 266t334 117h135v-287h-57q-142 0 -142 -96h199v-295h-199v-842h-387z" />
    <glyph glyph-name="g" unicode="g" horiz-adv-x="1182" 
d="M1016 1520v-283h-39q-137 0 -164 -66q83 -16 147 -71t99 -132t35 -159q0 -106 -56.5 -197t-168.5 -144.5t-269 -53.5t-269.5 53.5t-169.5 144t-57 197.5q0 94 47.5 183t141.5 145.5t229 62.5q13 176 140.5 247t353.5 73zM600 696q64 0 97.5 33.5t33.5 79.5q0 51 -37.5 83
t-93.5 32q-46 0 -76.5 -17t-43.5 -44t-13 -54q0 -42 29 -77.5t104 -35.5zM381 381v-21q0 -23 30 -40t72 -17q28 0 62.5 7.5t107.5 27.5q112 31 211 31q119 0 196 -62t77 -170q0 -99 -66 -157t-168 -58q-47 0 -86 10q14 7 14 33q0 19 -15 30t-36 13h-30q-66 -3 -148 -22
q-130 -33 -207 -33q-100 0 -182 33t-131 103.5t-49 174.5q0 73 29.5 139.5t89.5 112.5q109 -110 229 -135z" />
    <glyph glyph-name="h" unicode="h" horiz-adv-x="1327" 
d="M123 1520h387v-1520h-387v1520zM590 872v295q90 37 203 37q116 0 205.5 -46.5t147 -128t87 -188t29.5 -233.5q0 -98 -24 -244.5t-85 -363.5h-387q42 133 69 288t27 263q0 119 -30 193t-79 105.5t-104 31.5q-36 0 -59 -9z" />
    <glyph glyph-name="i" unicode="i" horiz-adv-x="633" 
d="M510 1180v-1180h-387v1180h387zM106 1520h420q-19 -112 -76.5 -192.5t-132.5 -80.5q-73 0 -131.5 77t-79.5 196z" />
    <glyph glyph-name="j" unicode="j" horiz-adv-x="645" 
d="M530 1180v-830q0 -99 -23.5 -188.5t-115 -161.5t-270.5 -72q-62 0 -94 4v295q74 0 95 53.5t21 137.5v762h387zM127 1520h420q-16 -82 -46.5 -142.5t-73.5 -95.5t-91 -35q-54 0 -100.5 44.5t-75 107.5t-33.5 121z" />
    <glyph glyph-name="k" unicode="k" horiz-adv-x="1241" 
d="M510 1520v-545q156 82 235 205h482q-38 -72 -90.5 -140.5t-117.5 -130t-140 -110.5q61 -63 118.5 -148.5t100.5 -178t79.5 -212t63.5 -260.5h-401q-17 98 -55.5 211t-93.5 216.5t-124 188.5q-24 -18 -57 -30v-586h-387v1520h387z" />
    <glyph glyph-name="l" unicode="l" horiz-adv-x="633" 
d="M510 1520v-1520h-387v1520h387z" />
    <glyph glyph-name="m" unicode="m" horiz-adv-x="2028" 
d="M123 1180h387v-1180h-387v1180zM590 872v295q95 37 203 37q105 0 192.5 -46t148.5 -127.5t93.5 -189.5t32.5 -233q0 -74 -15 -184t-41 -223.5t-53 -200.5h-385q25 81 47 181t34.5 197.5t12.5 172.5q0 109 -30 183t-79.5 110.5t-105.5 36.5q-32 0 -55 -9zM1843 0h-385
q64 187 84.5 316.5t20.5 215.5q0 150 -40 227.5t-86.5 99.5t-80.5 22q-21 0 -62 -9q-45 163 -166 267q52 27 110.5 45t120 27.5t120.5 9.5q142 0 252 -82t170.5 -229t60.5 -343q0 -88 -24 -232.5t-95 -334.5z" />
    <glyph glyph-name="n" unicode="n" horiz-adv-x="1327" 
d="M123 1180h387v-1180h-387v1180zM590 872v295q90 37 203 37q116 0 205.5 -46.5t147 -128t87 -188t29.5 -233.5q0 -98 -24 -244.5t-85 -363.5h-387q42 133 69 288t27 263q0 119 -30 193t-79 105.5t-104 31.5q-36 0 -59 -9z" />
    <glyph glyph-name="o" unicode="o" horiz-adv-x="1380" 
d="M690 -27q-182 0 -323.5 72.5t-221 212.5t-79.5 332t79.5 332t221 212t323.5 72q183 0 324.5 -72t221 -212t79.5 -332t-79.5 -332t-220.5 -212.5t-325 -72.5zM690 268q94 0 159.5 72.5t65.5 249.5t-65 249t-160 72q-84 0 -154.5 -64.5t-70.5 -256.5q0 -191 70.5 -256.5
t154.5 -65.5z" />
    <glyph glyph-name="p" unicode="p" horiz-adv-x="1346" 
d="M123 1180h565q102 0 229.5 -29t245 -151t117.5 -367q0 -168 -70.5 -295t-188 -193.5t-255.5 -66.5q-92 0 -178 12v295q42 -12 84 -12q75 0 142 52t67 193q0 267 -283 267h-88v-953h-387v1248z" />
    <glyph glyph-name="q" unicode="q" horiz-adv-x="1348" 
d="M838 90h-111q-193 0 -343 58.5t-234 179.5t-84 299q0 138 45 245.5t123.5 178.5t178 106t212.5 35q65 0 133 -12v-295q-15 2 -45 2q-110 0 -176 -58q-72 -64 -72 -184q0 -153 94.5 -201.5t198.5 -48.5h80v785h387v-1248h-387v158z" />
    <glyph glyph-name="r" unicode="r" horiz-adv-x="1106" 
d="M588 885v295q55 8 127 8q128 0 210.5 -56t119 -141t36.5 -176q0 -52 -11.5 -110.5t-33.5 -112.5h-340q21 82 21 143q0 90 -36 120t-71 30h-22zM510 1180v-1180h-387v1180h387z" />
    <glyph glyph-name="s" unicode="s" horiz-adv-x="1001" 
d="M926 1180v-308h-344q-42 0 -62 -9t-20 -34q0 -32 41 -60.5t141 -86.5q78 -47 130.5 -90.5t90 -115t37.5 -167.5q0 -69 -34.5 -139t-121 -120t-231.5 -50h-492v307h400q41 0 59.5 20t18.5 40q0 37 -42.5 70.5t-136.5 90.5q-113 72 -171.5 121.5t-86.5 105t-28 130.5
q0 131 65 196.5t142.5 82t150.5 16.5h494z" />
    <glyph glyph-name="t" unicode="t" horiz-adv-x="674" 
d="M143 872h-116v308h116v272h387v-272h117v-308h-117v-872h-387v872z" />
    <glyph glyph-name="u" unicode="u" horiz-adv-x="1327" 
d="M737 309v-295q-105 -30 -215 -30q-112 0 -199 45.5t-144 127t-85 187.5t-28 229q0 247 102 607h391q-51 -184 -72.5 -342.5t-21.5 -264.5q0 -144 58.5 -208t148.5 -64q21 0 65 8zM817 0v1180h387v-1180h-387z" />
    <glyph glyph-name="v" unicode="v" horiz-adv-x="1155" 
d="M0 1180h381q13 -94 41 -206.5t68 -225.5t88 -207q45 91 87 204t71 226.5t38 208.5h381q-27 -154 -69.5 -302.5t-98.5 -292t-127.5 -286t-167.5 -299.5h-229l-121 213t-130.5 268t-126.5 334.5t-85 364.5z" />
    <glyph glyph-name="w" unicode="w" horiz-adv-x="1747" 
d="M1339 0h-252q-81 159 -141 293t-113.5 285t-90 297.5t-62.5 304.5h387q6 -112 46.5 -262.5t100.5 -282.5q56 130 90 247.5t43.5 179t12.5 118.5h387q-37 -227 -90.5 -414t-131.5 -372.5t-186 -393.5zM659 0h-249q-74 135 -138.5 276.5t-120 297t-94 309.5t-57.5 297h387
q12 -135 52.5 -281t95.5 -264q71 159 112 326q23 -108 49 -200.5t62.5 -194.5t77.5 -201q-8 -25 -21.5 -57l-30.5 -69t-47 -94.5z" />
    <glyph glyph-name="x" unicode="x" horiz-adv-x="1169" 
d="M1169 0h-389q-16 107 -62.5 190.5t-131.5 171.5q-163 -155 -197 -362h-389q40 175 133.5 337.5t224.5 264.5q-119 119 -203.5 268.5t-113.5 309.5h375q5 -69 43.5 -152.5t126.5 -177.5q86 95 123.5 176t44.5 154h374q-28 -159 -112.5 -309.5t-204.5 -268.5
q89 -70 160.5 -166.5t121.5 -208.5t76 -227z" />
    <glyph glyph-name="y" unicode="y" horiz-adv-x="1186" 
d="M803 1180h383q-30 -408 -188 -691.5t-390.5 -420t-482.5 -136.5h-100v324q200 2 329 80q-169 191 -244.5 394t-84.5 450h383q24 -236 86 -373.5t139 -216.5q76 105 117.5 265.5t52.5 324.5z" />
    <glyph glyph-name="z" unicode="z" horiz-adv-x="1030" 
d="M80 1180h926q-26 -135 -91 -300t-158 -317.5t-200 -255.5h449v-307h-981v307q164 112 288 262.5t166 302.5h-399v308z" />
    <glyph glyph-name="braceleft" unicode="{" horiz-adv-x="877" 
d="M633 1599l43 -88q-51 -25 -78 -69.5t-27 -106.5q0 -18 1.5 -50t5 -78.5t4.5 -73.5v-113q-9 -137 -65.5 -227t-184.5 -152q93 -42 146.5 -102t76 -128.5t27.5 -148.5v-110q-1 -16 -4 -44t-5 -59q-2 -33 -2 -100q0 -118 105 -178l-43 -86q-103 11 -166 56t-93 106.5
t-38 122t-8 122.5q0 22 2 74t2 76q0 140 -34.5 240.5t-154.5 117.5v84q189 15 189 356q0 29 -2 77t-2 73q0 75 8 135t38 116t92 98.5t167 59.5z" />
    <glyph glyph-name="bar" unicode="|" horiz-adv-x="573" 
d="M143 -459v2157h287v-2157h-287z" />
    <glyph glyph-name="braceright" unicode="}" horiz-adv-x="877" 
d="M244 -315l-43 86q104 61 104 178q0 20 -1.5 51t-4 71t-4.5 81v110q7 124 60.5 220.5t189.5 158.5q-88 44 -140 96t-78 120.5t-32 162.5v113q3 52 8 102q2 33 2 100q0 61 -26.5 105.5t-77.5 70.5l43 88q137 -24 203.5 -87t84 -139.5t17.5 -182.5q0 -25 -2 -73t-2 -77
q0 -341 188 -356v-84q-119 -17 -153.5 -119t-34.5 -239q0 -24 2 -76t2 -74q0 -93 -18 -174t-85 -149.5t-202 -83.5z" />
    <glyph glyph-name="asciitilde" unicode="~" horiz-adv-x="1161" 
d="M279 1270h-164q3 87 54 173.5t193 86.5q69 0 119.5 -11.5t112.5 -39.5l51.5 -23t50.5 -16.5t60 -5.5q122 0 129 86h162q-4 -97 -57 -178.5t-187 -81.5q-70 0 -111 9t-112 38q-117 47 -170 47q-61 0 -93 -18.5t-38 -65.5z" />
    <glyph glyph-name="afii10051" 
 />
    <glyph glyph-name="afii10052" horiz-adv-x="1157" 
d="M123 0v1520h1034v-340h-602v-1180h-432z" />
    <glyph glyph-name="quotesinglbase" unicode="&#x201a;" horiz-adv-x="580" 
d="M356 -145h-254q28 25 61 69.5t46 77.5q-59 17 -91 61t-32 105q0 93 61 150t142 57q64 0 110 -29t70.5 -75.5t24.5 -100.5q0 -84 -36 -156t-102 -159z" />
    <glyph glyph-name="afii10100" unicode="&#x192;" horiz-adv-x="965" 
d="M965 1180v-308h-455v-872h-387v1180h842z" />
    <glyph glyph-name="quotedblbase" unicode="&#x201e;" horiz-adv-x="1077" 
d="M356 -145h-254q28 25 61 69.5t46 77.5q-59 17 -91 61t-32 105q0 93 61 150t142 57q64 0 110 -29t70.5 -75.5t24.5 -100.5q0 -84 -36 -156t-102 -159zM856 -145h-254q70 78 105 147q-60 17 -91.5 65t-31.5 101q0 76 51 141.5t151 65.5q85 0 145 -56t60 -149
q0 -82 -28 -142.5t-68 -117.5q-22 -28 -39 -55z" />
    <glyph glyph-name="ellipsis" unicode="&#x2026;" horiz-adv-x="2083" 
d="M143 170q0 84 59.5 144.5t143.5 60.5q55 0 102.5 -28.5t75 -75.5t27.5 -101q0 -83 -60 -144t-145 -61q-57 0 -103 27.5t-73 75t-27 102.5zM838 170q0 62 31.5 109t78.5 71.5t92 24.5t93.5 -24.5t80 -71t31.5 -109.5t-31.5 -109.5t-80 -71t-93.5 -24.5q-71 0 -136.5 55.5
t-65.5 149.5zM1532 170q0 62 31 109t79.5 71.5t94.5 24.5q45 0 92 -24.5t78.5 -71.5t31.5 -109t-31.5 -109t-78.5 -71.5t-92 -24.5q-46 0 -94.5 24.5t-79.5 71.5t-31 109z" />
    <glyph glyph-name="dagger" unicode="&#x2020;" horiz-adv-x="1290" 
d="M459 -287l39 1155l-412 -37v373l412 -37l-39 410h372l-36 -410l409 37v-373l-409 37l36 -1155h-372z" />
    <glyph glyph-name="daggerdbl" unicode="&#x2021;" horiz-adv-x="1393" 
d="M43 883h133v88q0 139 38.5 249t112.5 184.5t175.5 112t226.5 37.5q71 0 147.5 -13t166 -56t177 -139t144.5 -250l-309 -115q-30 91 -105.5 173.5t-187.5 82.5q-75 0 -138 -59.5t-63 -206.5v-88h406v-295h-406v-271h762v-317h-1147v588h-133v295z" />
    <glyph glyph-name="perthousand" unicode="&#x2030;" horiz-adv-x="3494" 
d="M66 1135q0 85 32 165.5t92 145.5t144 103t184 38q93 0 176 -35t146 -98t98 -144.5t35 -174.5q0 -124 -62.5 -229t-167 -165.5t-225.5 -60.5q-119 0 -223.5 60.5t-166.5 165.5t-62 229zM315 1135q0 -91 62 -148t141 -57q84 0 144.5 59.5t60.5 145.5q0 56 -27.5 102.5
t-75 73t-102.5 26.5t-101 -26t-74 -72.5t-28 -103.5zM1540 1632h272l-897 -1814h-272zM1483 385q0 124 62.5 229t166.5 165.5t225 60.5q119 0 223 -60.5t167 -165.5t63 -229q0 -93 -34.5 -174.5t-97 -144.5t-146 -98.5t-175.5 -35.5q-123 0 -228 61.5t-165.5 166
t-60.5 225.5zM1733 385q0 -85 60 -144t144 -59q83 0 143 58t60 145q0 57 -27 104t-74.5 74t-101.5 27q-85 0 -144.5 -59.5t-59.5 -145.5zM2521 385q0 124 62.5 229t167 165.5t225.5 60.5q119 0 223.5 -60.5t166.5 -165.5t62 -229q0 -122 -60.5 -226.5t-164.5 -165.5
t-227 -61t-228.5 62t-166 166t-60.5 225zM2771 385q0 -56 27.5 -103t75 -73.5t102.5 -26.5t101.5 26.5t73.5 73t27 103.5t-27 104t-74.5 74t-100.5 27q-55 0 -103 -27.5t-75 -74t-27 -103.5z" />
    <glyph glyph-name="afii10058" unicode="&#x160;" 
 />
    <glyph glyph-name="quilsinglleft" unicode="&#x2039;" horiz-adv-x="662" 
d="M309 1067h295l-254 -455l254 -452h-295l-252 452z" />
    <glyph glyph-name="afii10059" unicode="&#x152;" 
 />
    <glyph glyph-name="afii10061" horiz-adv-x="1520" 
d="M123 1520h432v-308q110 36 228 121t182 187h518q-28 -58 -82.5 -133.5t-118 -143.5t-138.5 -129t-151 -102q102 -105 188 -228t152 -253t114.5 -268t72.5 -263h-445q-23 128 -72.5 250.5t-110.5 225t-127.5 188t-135.5 157.5q-36 -19 -74 -30v-791h-432v1520z" />
    <glyph glyph-name="afii10060" 
 />
    <glyph glyph-name="afii10145" 
 />
    <glyph glyph-name="afii10099" 
 />
    <glyph glyph-name="quoteleft" unicode="&#x2018;" horiz-adv-x="580" 
d="M221 1554h254q-76 -84 -104 -147q60 -17 91.5 -65.5t31.5 -100.5q0 -76 -52 -141.5t-151 -65.5q-83 0 -144 57t-61 148q0 78 28.5 141t67.5 119q22 28 39 55z" />
    <glyph glyph-name="quoteright" unicode="&#x2019;" horiz-adv-x="580" 
d="M356 1034h-254q76 76 107 146q-58 18 -90.5 62.5t-32.5 105.5q0 94 61 150t142 56q70 0 116.5 -32.5t67.5 -80.5t21 -91q0 -149 -138 -316z" />
    <glyph glyph-name="quotedblleft" unicode="&#x201c;" horiz-adv-x="1077" 
d="M221 1554h254q-76 -84 -104 -147q60 -17 91.5 -65.5t31.5 -100.5q0 -76 -52 -141.5t-151 -65.5q-83 0 -144 57t-61 148q0 78 28.5 141t67.5 119q22 28 39 55zM721 1554h254q-39 -38 -67.5 -80t-39.5 -67q56 -15 89.5 -61t33.5 -105q0 -84 -57.5 -145.5t-145.5 -61.5
q-93 0 -148.5 61t-55.5 144t36 156.5t101 158.5z" />
    <glyph glyph-name="quotedblright" unicode="&#x201d;" horiz-adv-x="1077" 
d="M356 1034h-254q30 28 62 71.5t45 76.5q-58 15 -90.5 60t-32.5 106q0 94 61 150t142 56q94 0 149.5 -60.5t55.5 -143.5q0 -84 -35.5 -156.5t-102.5 -159.5zM856 1034h-254q73 81 105 148q-60 17 -91.5 65t-31.5 101q0 76 50.5 141t151.5 65q55 0 102 -25.5t75 -71.5
t28 -107q0 -125 -96 -260q-23 -29 -39 -56z" />
    <glyph glyph-name="bullet" unicode="&#x2022;" horiz-adv-x="602" 
d="M86 760q0 87 62 151t153 64q58 0 107.5 -28.5t78.5 -78t29 -108.5q0 -41 -16.5 -81.5t-45.5 -69.5t-68.5 -46.5t-84.5 -17.5q-90 0 -152.5 64t-62.5 151z" />
    <glyph glyph-name="emdash" unicode="&#x2013;" horiz-adv-x="1548" 
d="M86 903h1376v-287h-1376v287z" />
    <glyph glyph-name="endash" unicode="&#x2014;" horiz-adv-x="1704" 
d="M57 748h1590v-295h-1590v295z" />
    <glyph glyph-name="trademark" unicode="&#x2122;" horiz-adv-x="1104" 
d="M86 1806h360v-106h-112v-369h-135v369h-113v106zM793 1409h-86q-6 47 -33 109.5t-56 91.5v-279h-135v475h135q40 -37 80 -98.5t50 -108.5h4q6 33 52 107.5t79 99.5h135v-475h-135v279q-28 -25 -56 -88t-34 -113z" />
    <glyph glyph-name="afii10106" unicode="&#x161;" 
 />
    <glyph glyph-name="quilsinglright" unicode="&#x203a;" horiz-adv-x="659" 
d="M352 1067l250 -455l-250 -452h-295l254 452l-254 455h295z" />
    <glyph glyph-name="afii10107" unicode="&#x153;" 
 />
    <glyph glyph-name="afii10109" horiz-adv-x="1260" 
d="M510 1180v-277q83 44 167.5 122.5t121.5 154.5h430q-51 -117 -135.5 -215t-182.5 -172q83 -104 157.5 -240t123.5 -278.5t68 -274.5h-402q-11 65 -35.5 154t-53.5 162t-69 146.5t-86 129.5q-46 -29 -104 -55v-537h-387v1180h387z" />
    <glyph glyph-name="afii10108" 
 />
    <glyph glyph-name="afii10193" unicode="&#x178;" 
 />
    <glyph glyph-name="afii10062" unicode="&#xa1;" horiz-adv-x="1434" 
d="M1012 1520h422q-11 -101 -33.5 -222t-59.5 -263.5t-91 -285t-115 -251.5q-72 -128 -151 -219t-193.5 -161.5t-263.5 -109.5t-343 -43v342q95 1 172.5 20.5t137.5 49.5t95 54.5t62 49.5q-117 74 -224.5 186t-191 246t-143.5 287.5t-92 319.5h444q28 -133 87.5 -261
t144.5 -240.5t178 -193.5q68 170 105.5 332t52.5 363zM467 1706h557q-15 -84 -94.5 -135t-184.5 -51q-104 0 -183.5 51t-94.5 135z" />
    <glyph glyph-name="afii10110" unicode="&#xa2;" horiz-adv-x="1186" 
d="M803 1180h383q-30 -408 -188 -691.5t-390.5 -420t-482.5 -136.5h-100v324q200 2 329 80q-169 191 -244.5 394t-84.5 450h383q24 -236 86 -373.5t139 -216.5q76 105 117.5 265.5t52.5 324.5zM401 1520h422q-12 -69 -42.5 -133t-74.5 -102t-94 -38q-73 0 -131.5 80.5
t-79.5 192.5z" />
    <glyph glyph-name="afii10057" unicode="&#xa3;" horiz-adv-x="903" 
d="M356 1520h432v-953q0 -188 -48 -308.5t-126 -184.5t-165 -86.5t-179 -22.5q-166 0 -299 35v340q77 -33 162 -33q73 0 120.5 19t75 83.5t27.5 188.5v922z" />
    <glyph glyph-name="currency" unicode="&#xa4;" horiz-adv-x="1792" 
d="M143 115l242 241q-26 39 -50 83.5t-44.5 117t-20.5 160.5q0 193 115 360l-242 242l144 143l239 -241q90 71 184.5 96.5t184.5 25.5t185.5 -26t183.5 -96l241 241l144 -143l-242 -242q39 -51 77 -143.5t38 -216.5q0 -204 -115 -361l242 -241l-144 -144l-241 242
q-156 -123 -369 -123t-369 123l-239 -242zM475 717q0 -117 57 -213t153 -151.5t210 -55.5q83 0 159.5 31.5t135.5 89.5t92 135.5t33 163.5q0 116 -57.5 213t-153 152t-209.5 55t-209.5 -55t-153 -152t-57.5 -213z" />
    <glyph glyph-name="afii10050" unicode="&#xa5;" horiz-adv-x="1157" 
d="M123 0v1520h692v327h342v-667h-602v-1180h-432z" />
    <glyph glyph-name="brokenbar" unicode="&#xa6;" horiz-adv-x="582" 
d="M86 795q0 45 24.5 92t71.5 78.5t109 31.5t109 -31.5t71.5 -78.5t24.5 -92t-24.5 -93.5t-71 -80t-109.5 -31.5q-93 0 -149 66.5t-56 138.5zM86 170q0 50 26 97.5t73.5 77.5t105.5 30q54 0 100.5 -27.5t75.5 -75t29 -102.5t-29 -102.5t-75.5 -75t-100.5 -27.5t-101 27.5
t-75.5 75t-28.5 102.5z" />
    <glyph glyph-name="section" unicode="&#xa7;" horiz-adv-x="1120" 
d="M104 74h400q76 0 76 59q0 35 -33 64q-89 76 -217 168.5t-167 124t-70.5 80.5t-31.5 114t34.5 115t87 84t110.5 53q-104 75 -143 140t-39 149q0 130 65.5 195.5t143.5 82.5t149 17h494v-308h-381q-17 0 -31 -15t-14 -28q0 -14 20.5 -35.5t67 -56.5l116.5 -88
q188 -141 253 -220.5t65 -170.5q0 -84 -67 -143.5t-163 -73.5q152 -110 152 -303q0 -97 -47.5 -167t-135.5 -107t-202 -37h-492v307zM664 520h18q19 0 33 10.5t14 26.5q0 43 -58 95t-192 147h-16q-19 0 -33 -10.5t-14 -26.5q0 -37 34.5 -73.5t124.5 -102.5q86 -64 89 -66z
" />
    <glyph glyph-name="afii10023" unicode="&#xa8;" horiz-adv-x="1221" 
d="M1128 1520v-340h-557v-840h594v-340h-1026v1520h989zM1221 1055v-340h-570v340h570zM123 1864h420q-5 -58 -33.5 -121t-75 -107.5t-100.5 -44.5q-73 0 -131.5 77t-79.5 196zM702 1864h420q-20 -118 -78.5 -195.5t-132.5 -77.5q-67 0 -126.5 73.5t-82.5 199.5z" />
    <glyph glyph-name="copyright" unicode="&#xa9;" horiz-adv-x="1548" 
d="M958 1198v-197q-54 25 -108 25q-112 0 -144 -71.5t-32 -137.5q0 -33 11 -78.5t52 -85t119 -39.5q63 0 117 25v-197q-54 -16 -129 -16q-144 0 -239.5 53t-140 142t-44.5 196q0 164 95 280.5t308 116.5q77 0 135 -16zM258 817q0 -137 69 -256.5t187.5 -189.5t259.5 -70
q138 0 257 69t189 187.5t70 259.5t-70 259.5t-189 187.5t-257 69q-137 0 -256.5 -69t-189.5 -187.5t-70 -259.5zM86 817q0 139 53 265t147 220.5t219 148.5t269 54q145 0 270.5 -54t218 -148t146 -221t53.5 -265q0 -185 -91.5 -343t-250.5 -251.5t-346 -93.5t-346 93.5
t-250.5 251.5t-91.5 343z" />
    <glyph glyph-name="afii10053" unicode="&#xaa;" horiz-adv-x="1260" 
d="M1210 1520v-330q-115 31 -225 31q-147 0 -255 -59.5t-164 -167t-56 -251.5q0 -131 53 -230.5t153 -153.5t240 -54q145 0 254 47v-352q-146 -35 -305 -35q-198 0 -354 58t-265 166t-164.5 255.5t-55.5 321.5q0 175 57.5 323.5t163 254t249 161.5t314.5 56q110 0 207 -13.5
t153 -27.5zM1260 977v-342h-654q-14 45 -14 125q0 68 17 119.5t44 97.5h607z" />
    <glyph glyph-name="guillemotleft" unicode="&#xab;" horiz-adv-x="1116" 
d="M311 1067h295l-256 -459l256 -448h-295l-254 448zM764 1067h295l-256 -459l256 -448h-295l-252 448z" />
    <glyph glyph-name="logicalnot" unicode="&#xac;" horiz-adv-x="1548" 
d="M86 903h1376v-614h-286v327h-1090v287z" />
    <glyph glyph-name="registered" unicode="&#xae;" horiz-adv-x="1548" 
d="M86 1118q0 151 58 279.5t157.5 220.5t222.5 140t250 48q138 0 265 -53.5t221 -146t148 -218t54 -270.5q0 -144 -54 -269t-148.5 -219t-220.5 -147t-265 -53q-185 0 -343 91.5t-251.5 250.5t-93.5 346zM297 1118q0 -140 68.5 -249.5t178.5 -168.5t230 -59q97 0 184 36.5
t154.5 104t104 154t36.5 182.5t-37 183.5t-103 153.5t-152.5 103t-186.5 37q-128 0 -238 -63t-174.5 -172.5t-64.5 -241.5zM520 1427h240q119 0 209 -39.5t90 -175.5q0 -97 -54 -141.5t-116 -56.5q89 -50 158 -53v-148q-81 15 -154 48.5t-172 92.5v156q24 -8 59 -8
q103 0 103 98q0 30 -13 50.5t-33.5 31t-37.5 10.5h-109v-467h-170v602z" />
    <glyph glyph-name="afii10056" unicode="&#xaf;" horiz-adv-x="924" 
d="M246 1520h432v-1520h-432v1520zM23 1864h419q-5 -58 -33.5 -121t-75 -107.5t-100.5 -44.5q-47 0 -91.5 35.5t-74.5 97t-44 140.5zM481 1864h420q-14 -79 -45 -140.5t-74.5 -97t-91.5 -35.5q-67 0 -126.5 73.5t-82.5 199.5z" />
    <glyph glyph-name="degree" unicode="&#xb0;" horiz-adv-x="586" 
d="M66 1292q0 62 31.5 115t83.5 83t112 30q62 0 113.5 -30.5t82.5 -83t31 -114.5q0 -96 -65.5 -160.5t-161.5 -64.5q-61 0 -114 30t-83 81.5t-30 113.5zM203 1292q0 -37 25.5 -63.5t64.5 -26.5q38 0 65 26t27 64q0 40 -29.5 66t-62.5 26q-32 0 -61 -26t-29 -66z" />
    <glyph glyph-name="plusminus" unicode="&#xb1;" horiz-adv-x="1548" 
d="M924 387h-287v373h-551v287h551v473h287v-473h538v-287h-538v-373zM86 0v287h1376v-287h-1376z" />
    <glyph glyph-name="afii10055" unicode="&#xb2;" horiz-adv-x="678" 
d="M123 1520h432v-1520h-432v1520z" />
    <glyph glyph-name="afii10103" unicode="&#xb3;" horiz-adv-x="633" 
d="M510 1180v-1180h-387v1180h387zM106 1520h420q-19 -112 -76.5 -192.5t-132.5 -80.5q-73 0 -131.5 77t-79.5 196z" />
    <glyph glyph-name="afii10098" unicode="&#xb4;" horiz-adv-x="965" 
d="M123 1180h547v245h295v-553h-455v-872h-387v1180z" />
    <glyph glyph-name="mu" unicode="&#xb5;" horiz-adv-x="1446" 
d="M1307 1180v-750q0 -44 8.5 -70t33.5 -39.5t72 -13.5v-307q-31 -12 -73.5 -19.5t-133.5 -7.5q-99 0 -160.5 44.5t-70.5 115.5q-36 -71 -101 -117.5t-147 -46.5q-152 0 -225 144v-514h-387v1581h387v-629q0 -112 50 -187t155 -75q72 0 117.5 36t66.5 96t21 130v629h387z
" />
    <glyph glyph-name="paragraph" unicode="&#xb6;" horiz-adv-x="1364" 
d="M791 -287h-287v1043h-43q-190 0 -297 101t-107 273q0 85 28 157.5t81 124.5t128 80t167 28h330v-1807zM954 1520h287v-1807h-287v1807z" />
    <glyph glyph-name="periodcentered" unicode="&#x2219;" horiz-adv-x="580" 
d="M86 600q0 84 59.5 144.5t143.5 60.5q53 0 101 -28t76 -75.5t28 -101.5q0 -82 -60.5 -143.5t-144.5 -61.5q-57 0 -103 27.5t-73 75t-27 102.5z" />
    <glyph glyph-name="afii10071" unicode="&#xb8;" horiz-adv-x="1354" 
d="M1178 322v-308q-184 -41 -381 -41q-223 0 -389.5 77.5t-254 219.5t-87.5 328q0 196 85 333.5t232.5 206t333.5 68.5q142 0 273 -46.5t226 -190t95 -406.5q0 -49 -2 -74h-729q-37 52 -37 123q0 62 12 105h383q-6 194 -213 194q-134 0 -197 -79.5t-63 -215.5
q0 -134 85.5 -241t338.5 -107q149 0 289 54zM246 1520h420q-14 -79 -45 -140.5t-74.5 -97t-91.5 -35.5q-69 0 -128 73.5t-81 199.5zM825 1520h420q-20 -119 -78.5 -196t-132.5 -77q-54 0 -100 44t-75 107t-34 122z" />
    <glyph glyph-name="afii61352" unicode="&#xb9;" horiz-adv-x="2689" 
d="M123 1520h432q96 -44 204 -113.5t207 -150t183 -166.5v430h432v-1520h-432v496q-112 138 -275.5 281.5t-318.5 240.5v-1018h-432v1520zM1716 889q0 93 35.5 177t98.5 146t144.5 96.5t174.5 34.5q121 0 226 -61t166.5 -165t61.5 -228t-61 -229t-164 -165.5t-229 -60.5
q-124 0 -227.5 59.5t-164.5 165t-61 230.5zM1966 889q0 -55 27 -102.5t73 -75t103 -27.5q45 0 93.5 24.5t80 71t31.5 109.5t-31.5 109.5t-80 71t-93.5 24.5q-57 0 -103.5 -28t-73 -75.5t-26.5 -101.5zM1774 272h792v-272h-792v272z" />
    <glyph glyph-name="afii10101" unicode="&#xba;" horiz-adv-x="1073" 
d="M1008 1180v-295q-104 26 -203 26q-119 0 -214.5 -50t-121.5 -142h408v-227h-408q15 -75 65.5 -125t129 -74.5t176.5 -24.5q88 0 168 27v-295q-126 -27 -265 -27q-164 0 -291 49.5t-214.5 140t-129.5 205t-42 244.5q0 143 51.5 256t145 188t215 112.5t265.5 37.5
q138 0 265 -26z" />
    <glyph glyph-name="guillemotright" unicode="&#xbb;" horiz-adv-x="1116" 
d="M352 1067l254 -459l-254 -448h-295l256 448l-256 459h295zM807 1067l252 -459l-252 -448h-295l254 448l-254 459h295z" />
    <glyph glyph-name="afii10105" unicode="&#xbc;" horiz-adv-x="645" 
d="M530 1180v-830q0 -99 -23.5 -188.5t-115 -161.5t-270.5 -72q-62 0 -94 4v295q74 0 95 53.5t21 137.5v762h387zM127 1520h420q-16 -82 -46.5 -142.5t-73.5 -95.5t-91 -35q-54 0 -100.5 44.5t-75 107.5t-33.5 121z" />
    <glyph glyph-name="afii10054" unicode="&#xbd;" horiz-adv-x="1217" 
d="M1139 1520v-340h-437q-124 0 -124 -88q0 -31 17.5 -57.5t54 -56.5t120.5 -89q146 -104 220 -166.5t119.5 -144.5t45.5 -197q0 -165 -93.5 -250t-207.5 -108t-221 -23h-572v340h480q129 0 129 86q0 27 -10 47.5t-26 37.5t-58 50l-72 57l-171 133t-125 114t-84 128t-32 162
q0 103 46.5 185t152.5 131t272 49h576z" />
    <glyph glyph-name="afii10102" unicode="&#xbe;" horiz-adv-x="1001" 
d="M926 1180v-308h-344q-42 0 -62 -9t-20 -34q0 -32 41 -60.5t141 -86.5q78 -47 130.5 -90.5t90 -115t37.5 -167.5q0 -69 -34.5 -139t-121 -120t-231.5 -50h-492v307h400q41 0 59.5 20t18.5 40q0 37 -42.5 70.5t-136.5 90.5q-113 72 -171.5 121.5t-86.5 105t-28 130.5
q0 131 65 196.5t142.5 82t150.5 16.5h494z" />
    <glyph glyph-name="afii10104" unicode="&#xbf;" horiz-adv-x="922" 
d="M653 1180v-1180h-387v1180h387zM23 1520h417q-5 -57 -33.5 -120.5t-75.5 -108t-100 -44.5q-50 0 -96 40.5t-77 106t-35 126.5zM479 1520h420q-32 -121 -82 -197t-131 -76q-73 0 -134.5 81.5t-72.5 191.5z" />
    <glyph glyph-name="afii10017" unicode="&#xc0;" horiz-adv-x="1477" 
d="M532 1520h412q113 -179 200 -376t153 -401.5t110 -393t70 -349.5h-433q-8 41 -20 113q-14 88 -27 143h-428q32 153 78 317h264q-25 100 -58 189.5t-65.5 161l-46.5 100.5q-73 -159 -132.5 -330t-104.5 -351.5t-72 -342.5h-432q36 188 92.5 402.5t129 425t150.5 387
t160 305.5z" />
    <glyph glyph-name="afii10017" unicode="&#x410;" horiz-adv-x="1477" 
d="M532 1520h412q113 -179 200 -376t153 -401.5t110 -393t70 -349.5h-433q-8 41 -20 113q-14 88 -27 143h-428q32 153 78 317h264q-25 100 -58 189.5t-65.5 161l-46.5 100.5q-73 -159 -132.5 -330t-104.5 -351.5t-72 -342.5h-432q36 188 92.5 402.5t129 425t150.5 387
t160 305.5z" />
    <glyph glyph-name="afii10018" unicode="&#xc1;" horiz-adv-x="1554" 
d="M123 1520h1206v-340h-774v-863h211q104 0 191 39t87 158q0 59 -27.5 107t-82 75t-133.5 27q-76 0 -166 -21v318q115 22 231 22q148 0 263.5 -35t196 -102t122 -163.5t41.5 -217.5q0 -83 -26 -170t-98 -168t-206.5 -133.5t-337.5 -52.5h-698v1520z" />
    <glyph glyph-name="afii10018" unicode="&#x411;" horiz-adv-x="1554" 
d="M123 1520h1206v-340h-774v-863h211q104 0 191 39t87 158q0 59 -27.5 107t-82 75t-133.5 27q-76 0 -166 -21v318q115 22 231 22q148 0 263.5 -35t196 -102t122 -163.5t41.5 -217.5q0 -83 -26 -170t-98 -168t-206.5 -133.5t-337.5 -52.5h-698v1520z" />
    <glyph glyph-name="afii10019" unicode="&#xc2;" horiz-adv-x="1528" 
d="M123 1520h782q145 0 243 -39t151.5 -98.5t75.5 -126.5t22 -132q0 -109 -62 -186.5t-153 -118.5v-4q157 -55 218.5 -157t61.5 -236q0 -84 -32 -159t-98 -133.5t-173.5 -94t-253.5 -35.5h-782v1520zM635 635v317h158q196 0 196 129q0 77 -54.5 99t-152.5 22h-227v-885h238
q128 0 176.5 49t48.5 107q0 103 -67 132.5t-163 29.5h-153z" />
    <glyph glyph-name="afii10019" unicode="&#x412;" horiz-adv-x="1528" 
d="M123 1520h782q145 0 243 -39t151.5 -98.5t75.5 -126.5t22 -132q0 -109 -62 -186.5t-153 -118.5v-4q157 -55 218.5 -157t61.5 -236q0 -84 -32 -159t-98 -133.5t-173.5 -94t-253.5 -35.5h-782v1520zM635 635v317h158q196 0 196 129q0 77 -54.5 99t-152.5 22h-227v-885h238
q128 0 176.5 49t48.5 107q0 103 -67 132.5t-163 29.5h-153z" />
    <glyph glyph-name="afii10020" unicode="&#xc3;" horiz-adv-x="1157" 
d="M123 0v1520h1034v-340h-602v-1180h-432z" />
    <glyph glyph-name="afii10020" unicode="&#x413;" horiz-adv-x="1157" 
d="M123 0v1520h1034v-340h-602v-1180h-432z" />
    <glyph glyph-name="afii10021" unicode="&#xc4;" horiz-adv-x="1690" 
d="M1503 1520v-1180h158v-340h-1661v340h1071v840h-88q-146 0 -235.5 -48.5t-129.5 -126.5t-48.5 -152t-8.5 -175q0 -44 6 -92t17.5 -102.5t15.5 -75.5h-430q-24 82 -38.5 173t-14.5 189q0 123 27.5 245.5t107 238.5t233.5 191t394 75h624z" />
    <glyph glyph-name="afii10021" unicode="&#x414;" horiz-adv-x="1690" 
d="M1503 1520v-1180h158v-340h-1661v340h1071v840h-88q-146 0 -235.5 -48.5t-129.5 -126.5t-48.5 -152t-8.5 -175q0 -44 6 -92t17.5 -102.5t15.5 -75.5h-430q-24 82 -38.5 173t-14.5 189q0 123 27.5 245.5t107 238.5t233.5 191t394 75h624z" />
    <glyph glyph-name="afii10022" unicode="&#xc5;" horiz-adv-x="1204" 
d="M1112 1520v-340h-557v-840h596v-340h-1028v1520h989zM1204 1055v-340h-569v340h569z" />
    <glyph glyph-name="afii10022" unicode="&#x415;" horiz-adv-x="1204" 
d="M1112 1520v-340h-557v-840h596v-340h-1028v1520h989zM1204 1055v-340h-569v340h569z" />
    <glyph glyph-name="afii10024" unicode="&#xc6;" horiz-adv-x="2206" 
d="M887 1520h432v-363q118 37 214.5 138.5t149.5 224.5h490q-64 -150 -176.5 -281t-249.5 -238q90 -86 170.5 -202t140 -245.5t97.5 -271t51 -282.5h-441q-12 92 -43 201.5t-78.5 222t-109.5 215.5t-129 174q-41 -22 -86 -33v-780h-432v780q-47 12 -86 33
q-91 -99 -168.5 -242.5t-127 -293t-65.5 -277.5h-440q22 187 79 366t154 343t226 292q-306 235 -426 519h489q38 -84 92 -156.5t125 -127.5t148 -79v363z" />
    <glyph glyph-name="afii10024" unicode="&#x416;" horiz-adv-x="2206" 
d="M887 1520h432v-363q118 37 214.5 138.5t149.5 224.5h490q-64 -150 -176.5 -281t-249.5 -238q90 -86 170.5 -202t140 -245.5t97.5 -271t51 -282.5h-441q-12 92 -43 201.5t-78.5 222t-109.5 215.5t-129 174q-41 -22 -86 -33v-780h-432v780q-47 12 -86 33
q-91 -99 -168.5 -242.5t-127 -293t-65.5 -277.5h-440q22 187 79 366t154 343t226 292q-306 235 -426 519h489q38 -84 92 -156.5t125 -127.5t148 -79v363z" />
    <glyph glyph-name="afii10025" unicode="&#xc7;" horiz-adv-x="1239" 
d="M70 1190v330q207 36 381 36q200 0 330.5 -42t198.5 -108t93 -138.5t25 -145.5q0 -123 -63.5 -198t-149.5 -111q59 -20 124.5 -62.5t115 -120.5t49.5 -190q0 -97 -41.5 -182t-129.5 -151.5t-226.5 -104t-323.5 -37.5q-199 0 -396 35v344q151 -24 213 -30.5t138 -6.5
q133 0 229 36t96 157q0 80 -64.5 113.5t-148.5 33.5h-338v318h318q94 0 126.5 39.5t32.5 82.5q0 33 -22 67.5t-78.5 58.5t-152.5 24q-176 0 -336 -47z" />
    <glyph glyph-name="afii10025" unicode="&#x417;" horiz-adv-x="1239" 
d="M70 1190v330q207 36 381 36q200 0 330.5 -42t198.5 -108t93 -138.5t25 -145.5q0 -123 -63.5 -198t-149.5 -111q59 -20 124.5 -62.5t115 -120.5t49.5 -190q0 -97 -41.5 -182t-129.5 -151.5t-226.5 -104t-323.5 -37.5q-199 0 -396 35v344q151 -24 213 -30.5t138 -6.5
q133 0 229 36t96 157q0 80 -64.5 113.5t-148.5 33.5h-338v318h318q94 0 126.5 39.5t32.5 82.5q0 33 -22 67.5t-78.5 58.5t-152.5 24q-176 0 -336 -47z" />
    <glyph glyph-name="afii10026" unicode="&#xc8;" horiz-adv-x="1610" 
d="M123 1520h432v-406q98 119 238 234t262 172h432v-1520h-432v1087q-63 -40 -132 -96t-139 -124t-129 -137t-100 -132v-598h-432v1520z" />
    <glyph glyph-name="afii10026" unicode="&#x418;" horiz-adv-x="1610" 
d="M123 1520h432v-406q98 119 238 234t262 172h432v-1520h-432v1087q-63 -40 -132 -96t-139 -124t-129 -137t-100 -132v-598h-432v1520z" />
    <glyph glyph-name="afii10027" unicode="&#xc9;" horiz-adv-x="1608" 
d="M123 1520h432v-406q75 98 228.5 224.5t269.5 181.5h432v-1520h-432v1087q-59 -36 -132.5 -95t-139 -124t-125.5 -136.5t-101 -133.5v-598h-432v1520zM522 1706h557q-15 -84 -94.5 -135t-183.5 -51t-183.5 51t-95.5 135z" />
    <glyph glyph-name="afii10027" unicode="&#x419;" horiz-adv-x="1608" 
d="M123 1520h432v-406q75 98 228.5 224.5t269.5 181.5h432v-1520h-432v1087q-59 -36 -132.5 -95t-139 -124t-125.5 -136.5t-101 -133.5v-598h-432v1520zM522 1706h557q-15 -84 -94.5 -135t-183.5 -51t-183.5 51t-95.5 135z" />
    <glyph glyph-name="afii10028" unicode="&#xca;" horiz-adv-x="1520" 
d="M123 1520h432v-308q110 36 228 121t182 187h518q-28 -58 -82.5 -133.5t-118 -143.5t-138.5 -129t-151 -102q102 -105 188 -228t152 -253t114.5 -268t72.5 -263h-445q-23 128 -72.5 250.5t-110.5 225t-127.5 188t-135.5 157.5q-36 -19 -74 -30v-791h-432v1520z" />
    <glyph glyph-name="afii10028" unicode="&#x41a;" horiz-adv-x="1520" 
d="M123 1520h432v-308q110 36 228 121t182 187h518q-28 -58 -82.5 -133.5t-118 -143.5t-138.5 -129t-151 -102q102 -105 188 -228t152 -253t114.5 -268t72.5 -263h-445q-23 128 -72.5 250.5t-110.5 225t-127.5 188t-135.5 157.5q-36 -19 -74 -30v-791h-432v1520z" />
    <glyph glyph-name="afii10029" unicode="&#xcb;" horiz-adv-x="1563" 
d="M1008 1180h-52q-69 0 -137.5 -16t-139 -73.5t-120 -187t-49.5 -334.5q0 -260 35 -569h-436q-43 336 -43 571q0 286 69 478.5t177 293.5t227 139t243 38h658v-1520h-432v1180z" />
    <glyph glyph-name="afii10029" unicode="&#x41b;" horiz-adv-x="1563" 
d="M1008 1180h-52q-69 0 -137.5 -16t-139 -73.5t-120 -187t-49.5 -334.5q0 -260 35 -569h-436q-43 336 -43 571q0 286 69 478.5t177 293.5t227 139t243 38h658v-1520h-432v1180z" />
    <glyph glyph-name="afii10030" unicode="&#xcc;" horiz-adv-x="1956" 
d="M1114 252h-272q-12 73 -33.5 154.5t-54.5 167.5t-84 172t-115 147v-893h-432v1520h432q123 -111 250.5 -313.5t169.5 -346.5h8q18 70 61.5 159.5t104.5 185.5t126.5 178.5t125.5 136.5h432v-1520h-432v893q-59 -63 -109.5 -140.5t-99.5 -204t-78 -296.5z" />
    <glyph glyph-name="afii10030" unicode="&#x41c;" horiz-adv-x="1956" 
d="M1114 252h-272q-12 73 -33.5 154.5t-54.5 167.5t-84 172t-115 147v-893h-432v1520h432q123 -111 250.5 -313.5t169.5 -346.5h8q18 70 61.5 159.5t104.5 185.5t126.5 178.5t125.5 136.5h432v-1520h-432v893q-59 -63 -109.5 -140.5t-99.5 -204t-78 -296.5z" />
    <glyph glyph-name="afii10031" unicode="&#xcd;" horiz-adv-x="1608" 
d="M123 1520h432v-1520h-432v1520zM1053 1520h432v-1520h-432v750h-418v342h418v428z" />
    <glyph glyph-name="afii10031" unicode="&#x41d;" horiz-adv-x="1608" 
d="M123 1520h432v-1520h-432v1520zM1053 1520h432v-1520h-432v750h-418v342h418v428z" />
    <glyph glyph-name="afii10032" unicode="&#xce;" horiz-adv-x="1708" 
d="M66 760q0 192 58.5 341t167 251t250.5 152t312 50q167 0 310 -50.5t251 -152t167.5 -250t59.5 -341.5t-59 -341t-167.5 -249.5t-251 -153t-310.5 -51.5q-228 0 -406 92t-280 271t-102 432zM510 760q0 -196 84.5 -323.5t259.5 -127.5q173 0 258.5 127t85.5 324
q0 124 -35.5 226t-113 163t-195.5 61q-121 0 -197.5 -60t-111.5 -161.5t-35 -228.5z" />
    <glyph glyph-name="afii10032" unicode="&#x41e;" horiz-adv-x="1708" 
d="M66 760q0 192 58.5 341t167 251t250.5 152t312 50q167 0 310 -50.5t251 -152t167.5 -250t59.5 -341.5t-59 -341t-167.5 -249.5t-251 -153t-310.5 -51.5q-228 0 -406 92t-280 271t-102 432zM510 760q0 -196 84.5 -323.5t259.5 -127.5q173 0 258.5 127t85.5 324
q0 124 -35.5 226t-113 163t-195.5 61q-121 0 -197.5 -60t-111.5 -161.5t-35 -228.5z" />
    <glyph glyph-name="afii10033" unicode="&#xcf;" horiz-adv-x="1591" 
d="M123 1520h1345v-1520h-432v1180h-481v-1180h-432v1520z" />
    <glyph glyph-name="afii10033" unicode="&#x41f;" horiz-adv-x="1591" 
d="M123 1520h1345v-1520h-432v1180h-481v-1180h-432v1520z" />
    <glyph glyph-name="afii10034" unicode="&#xd0;" horiz-adv-x="1548" 
d="M123 1520h706q238 0 385.5 -85.5t212 -220.5t64.5 -286q0 -125 -39.5 -230.5t-119.5 -186t-194.5 -124t-260.5 -43.5q-124 0 -242 31v340q69 -31 156 -31q75 0 133 27.5t90.5 83t32.5 135.5q0 46 -16.5 99.5t-83 102t-197.5 48.5h-195v-1180h-432v1520z" />
    <glyph glyph-name="afii10034" unicode="&#x420;" horiz-adv-x="1548" 
d="M123 1520h706q238 0 385.5 -85.5t212 -220.5t64.5 -286q0 -125 -39.5 -230.5t-119.5 -186t-194.5 -124t-260.5 -43.5q-124 0 -242 31v340q69 -31 156 -31q75 0 133 27.5t90.5 83t32.5 135.5q0 46 -16.5 99.5t-83 102t-197.5 48.5h-195v-1180h-432v1520z" />
    <glyph glyph-name="afii10035" unicode="&#xd1;" horiz-adv-x="1237" 
d="M1194 1520v-330q-107 31 -205 31q-115 0 -204 -33t-150 -94t-92 -145t-31 -185q0 -142 45 -235t116.5 -142.5t145 -67.5t135.5 -18q121 0 240 39v-340q-154 -35 -332 -35q-279 0 -458.5 114.5t-258.5 295.5t-79 389q0 232 100 411.5t290.5 279t450.5 99.5q141 0 287 -34z
" />
    <glyph glyph-name="afii10035" unicode="&#x421;" horiz-adv-x="1237" 
d="M1194 1520v-330q-107 31 -205 31q-115 0 -204 -33t-150 -94t-92 -145t-31 -185q0 -142 45 -235t116.5 -142.5t145 -67.5t135.5 -18q121 0 240 39v-340q-154 -35 -332 -35q-279 0 -458.5 114.5t-258.5 295.5t-79 389q0 232 100 411.5t290.5 279t450.5 99.5q141 0 287 -34z
" />
    <glyph glyph-name="afii10036" unicode="&#xd2;" horiz-adv-x="1157" 
d="M0 1520h1157v-340h-362v-1180h-433v1180h-362v340z" />
    <glyph glyph-name="afii10036" unicode="&#x422;" horiz-adv-x="1157" 
d="M0 1520h1157v-340h-362v-1180h-433v1180h-362v340z" />
    <glyph glyph-name="afii10037" unicode="&#xd3;" horiz-adv-x="1434" 
d="M1012 1520h422q-11 -101 -33.5 -222t-59.5 -263.5t-91 -285t-115 -251.5q-72 -128 -151 -219t-193.5 -161.5t-263.5 -109.5t-343 -43v342q95 1 172.5 20.5t137.5 49.5t95 54.5t62 49.5q-117 74 -224.5 186t-191 246t-143.5 287.5t-92 319.5h444q28 -133 87.5 -261
t144.5 -240.5t178 -193.5q68 170 105.5 332t52.5 363z" />
    <glyph glyph-name="afii10037" unicode="&#x423;" horiz-adv-x="1434" 
d="M1012 1520h422q-11 -101 -33.5 -222t-59.5 -263.5t-91 -285t-115 -251.5q-72 -128 -151 -219t-193.5 -161.5t-263.5 -109.5t-343 -43v342q95 1 172.5 20.5t137.5 49.5t95 54.5t62 49.5q-117 74 -224.5 186t-191 246t-143.5 287.5t-92 319.5h444q28 -133 87.5 -261
t144.5 -240.5t178 -193.5q68 170 105.5 332t52.5 363z" />
    <glyph glyph-name="afii10038" unicode="&#xd4;" horiz-adv-x="2157" 
d="M862 -68v1088q-33 6 -84 6q-72 0 -134 -23.5t-104 -87.5t-42 -176q0 -147 64 -208.5t169 -61.5q20 0 66 4v-317q-79 -11 -138 -11q-155 0 -288.5 56.5t-219 190t-85.5 347.5q0 146 45 281t198 237.5t447 102.5h106v160h432v-160h107q161 0 313 -43.5t264.5 -181.5
t112.5 -396q0 -216 -84.5 -348.5t-218 -189t-289.5 -56.5q-56 0 -139 11v317q22 -4 65 -4q234 0 234 270q0 163 -85.5 225t-201.5 62q-46 0 -78 -6v-1088h-432z" />
    <glyph glyph-name="afii10038" unicode="&#x424;" horiz-adv-x="2157" 
d="M862 -68v1088q-33 6 -84 6q-72 0 -134 -23.5t-104 -87.5t-42 -176q0 -147 64 -208.5t169 -61.5q20 0 66 4v-317q-79 -11 -138 -11q-155 0 -288.5 56.5t-219 190t-85.5 347.5q0 146 45 281t198 237.5t447 102.5h106v160h432v-160h107q161 0 313 -43.5t264.5 -181.5
t112.5 -396q0 -216 -84.5 -348.5t-218 -189t-289.5 -56.5q-56 0 -139 11v317q22 -4 65 -4q234 0 234 270q0 163 -85.5 225t-201.5 62q-46 0 -78 -6v-1088h-432z" />
    <glyph glyph-name="afii10039" unicode="&#xd5;" horiz-adv-x="1520" 
d="M1520 0h-453q-26 94 -74.5 197.5t-110 198.5t-122.5 157q-94 -101 -178.5 -251.5t-128.5 -301.5h-453q48 154 121.5 301t170.5 280.5t214 239.5q-199 220 -287 393.5t-123 305.5h467q40 -137 80.5 -224.5t116.5 -187.5q54 70 108.5 172.5t87.5 239.5h467
q-41 -170 -150.5 -354t-256.5 -345q89 -80 167.5 -179.5t142 -207t112.5 -217t82 -217.5z" />
    <glyph glyph-name="afii10039" unicode="&#x425;" horiz-adv-x="1520" 
d="M1520 0h-453q-26 94 -74.5 197.5t-110 198.5t-122.5 157q-94 -101 -178.5 -251.5t-128.5 -301.5h-453q48 154 121.5 301t170.5 280.5t214 239.5q-199 220 -287 393.5t-123 305.5h467q40 -137 80.5 -224.5t116.5 -187.5q54 70 108.5 172.5t87.5 239.5h467
q-41 -170 -150.5 -354t-256.5 -345q89 -80 167.5 -179.5t142 -207t112.5 -217t82 -217.5z" />
    <glyph glyph-name="afii10040" unicode="&#xd6;" horiz-adv-x="1679" 
d="M127 1520h430q-9 -67 -20.5 -200t-19 -253.5t-7.5 -206.5q0 -183 35 -295.5t121 -168.5t237 -56h748v-340h-895q-132 0 -247 25.5t-216.5 107.5t-164 246.5t-62.5 429.5q0 311 61 711zM1468 1520v-1112h-432v1112h432z" />
    <glyph glyph-name="afii10040" unicode="&#x426;" horiz-adv-x="1679" 
d="M127 1520h430q-9 -67 -20.5 -200t-19 -253.5t-7.5 -206.5q0 -183 35 -295.5t121 -168.5t237 -56h748v-340h-895q-132 0 -247 25.5t-216.5 107.5t-164 246.5t-62.5 429.5q0 311 61 711zM1468 1520v-1112h-432v1112h432z" />
    <glyph glyph-name="afii10041" unicode="&#xd7;" horiz-adv-x="1587" 
d="M102 1520h433q-33 -214 -33 -447q0 -239 93 -314t220 -75q82 0 137 14v-340q-141 -18 -188 -18q-425 0 -566 209.5t-141 468.5q0 104 11.5 225t33.5 277zM1464 1520v-1520h-432v1520h432z" />
    <glyph glyph-name="afii10041" unicode="&#x427;" horiz-adv-x="1587" 
d="M102 1520h433q-33 -214 -33 -447q0 -239 93 -314t220 -75q82 0 137 14v-340q-141 -18 -188 -18q-425 0 -566 209.5t-141 468.5q0 104 11.5 225t33.5 277zM1464 1520v-1520h-432v1520h432z" />
    <glyph glyph-name="afii10042" unicode="&#xd8;" horiz-adv-x="2337" 
d="M1782 340v1180h432v-1520h-1458q-130 0 -243.5 25.5t-216.5 107t-166.5 248t-63.5 428.5q0 155 13.5 315.5t45.5 395.5h432q-47 -405 -47 -660q0 -119 14 -210.5t55 -161.5t120.5 -109t203.5 -39h879zM1374 1520v-1112h-432v1112h432z" />
    <glyph glyph-name="afii10042" unicode="&#x428;" horiz-adv-x="2337" 
d="M1782 340v1180h432v-1520h-1458q-130 0 -243.5 25.5t-216.5 107t-166.5 248t-63.5 428.5q0 155 13.5 315.5t45.5 395.5h432q-47 -405 -47 -660q0 -119 14 -210.5t55 -161.5t120.5 -109t203.5 -39h879zM1374 1520v-1112h-432v1112h432z" />
    <glyph glyph-name="afii10043" unicode="&#xd9;" horiz-adv-x="2423" 
d="M125 1520h432q-47 -405 -47 -660q0 -119 14 -210.5t55 -161.5t120.5 -109t203.5 -39h1491v-340h-1638q-130 0 -243.5 25.5t-216.5 107t-166.5 248t-63.5 428.5q0 155 13.5 315.5t45.5 395.5zM1374 1520v-1112h-432v1112h432zM2214 1520v-1112h-432v1112h432z" />
    <glyph glyph-name="afii10043" unicode="&#x429;" horiz-adv-x="2423" 
d="M125 1520h432q-47 -405 -47 -660q0 -119 14 -210.5t55 -161.5t120.5 -109t203.5 -39h1491v-340h-1638q-130 0 -243.5 25.5t-216.5 107t-166.5 248t-63.5 428.5q0 155 13.5 315.5t45.5 395.5zM1374 1520v-1112h-432v1112h432zM2214 1520v-1112h-432v1112h432z" />
    <glyph glyph-name="afii10044" unicode="&#xda;" horiz-adv-x="1661" 
d="M684 1520v-1180h131q162 0 253 45t91 193q0 102 -64 173.5t-192 71.5q-76 0 -141 -32v339q123 33 246 33q182 0 318 -74.5t207 -206.5t71 -300q0 -367 -220.5 -474.5t-457.5 -107.5h-674v1180h-223v340h655z" />
    <glyph glyph-name="afii10044" unicode="&#x42a;" horiz-adv-x="1661" 
d="M684 1520v-1180h131q162 0 253 45t91 193q0 102 -64 173.5t-192 71.5q-76 0 -141 -32v339q123 33 246 33q182 0 318 -74.5t207 -206.5t71 -300q0 -367 -220.5 -474.5t-457.5 -107.5h-674v1180h-223v340h655z" />
    <glyph glyph-name="afii10045" unicode="&#xdb;" horiz-adv-x="2122" 
d="M123 1520h432v-1180h131q162 0 253 45t91 193q0 65 -26.5 120.5t-83.5 90t-146 34.5q-76 0 -139 -32v339q118 33 244 33q183 0 319 -74.5t206.5 -206.5t70.5 -300q0 -367 -222 -474.5t-456 -107.5h-674v1520zM1567 1520h432v-1520h-432v1520z" />
    <glyph glyph-name="afii10045" unicode="&#x42b;" horiz-adv-x="2122" 
d="M123 1520h432v-1180h131q162 0 253 45t91 193q0 65 -26.5 120.5t-83.5 90t-146 34.5q-76 0 -139 -32v339q118 33 244 33q183 0 319 -74.5t206.5 -206.5t70.5 -300q0 -367 -222 -474.5t-456 -107.5h-674v1520zM1567 1520h432v-1520h-432v1520z" />
    <glyph glyph-name="afii10046" unicode="&#xdc;" horiz-adv-x="1532" 
d="M123 1520h432v-1180h131q162 0 253 45t91 193q0 65 -26.5 120.5t-83.5 90t-146 34.5q-76 0 -139 -32v339q118 33 244 33q183 0 319 -74.5t206.5 -206.5t70.5 -300q0 -367 -222 -474.5t-456 -107.5h-674v1520z" />
    <glyph glyph-name="afii10046" unicode="&#x42c;" horiz-adv-x="1532" 
d="M123 1520h432v-1180h131q162 0 253 45t91 193q0 65 -26.5 120.5t-83.5 90t-146 34.5q-76 0 -139 -32v339q118 33 244 33q183 0 319 -74.5t206.5 -206.5t70.5 -300q0 -367 -222 -474.5t-456 -107.5h-674v1520z" />
    <glyph glyph-name="afii10047" unicode="&#xdd;" horiz-adv-x="1288" 
d="M78 1182v338q60 14 155 27.5t205 13.5q172 0 316.5 -56t248.5 -160.5t162 -252t58 -326.5q0 -234 -98.5 -416.5t-289 -283.5t-452.5 -101q-98 0 -165.5 9t-139.5 26v344q115 -39 254 -39q213 0 329.5 115.5t116.5 314.5q0 146 -60 254.5t-167.5 165.5t-247.5 57
q-113 0 -225 -30zM29 975h606q63 -96 63 -215q0 -71 -16 -125h-653v340z" />
    <glyph glyph-name="afii10047" unicode="&#x42d;" horiz-adv-x="1288" 
d="M78 1182v338q60 14 155 27.5t205 13.5q172 0 316.5 -56t248.5 -160.5t162 -252t58 -326.5q0 -234 -98.5 -416.5t-289 -283.5t-452.5 -101q-98 0 -165.5 9t-139.5 26v344q115 -39 254 -39q213 0 329.5 115.5t116.5 314.5q0 146 -60 254.5t-167.5 165.5t-247.5 57
q-113 0 -225 -30zM29 975h606q63 -96 63 -215q0 -71 -16 -125h-653v340z" />
    <glyph glyph-name="afii10048" unicode="&#xde;" horiz-adv-x="2370" 
d="M555 1520v-476h129q-16 -53 -26.5 -131.5t-10.5 -146.5q0 -41 2 -61h-94v-705h-432v1520h432zM727 760q0 175 52.5 320t154.5 251.5t248.5 164.5t333.5 58q169 0 313 -50.5t250.5 -151t165.5 -250.5t59 -342t-59 -341.5t-165.5 -250t-250 -152t-313.5 -51.5
q-167 0 -310.5 51.5t-251 153t-167.5 251.5t-60 339zM1171 762q0 -125 36 -229t113.5 -165t195.5 -61q115 0 229.5 86.5t114.5 368.5q0 94 -20 176t-61 143t-106.5 96t-156.5 35q-118 0 -195.5 -60.5t-113.5 -163t-36 -226.5z" />
    <glyph glyph-name="afii10048" unicode="&#x42e;" horiz-adv-x="2370" 
d="M555 1520v-476h129q-16 -53 -26.5 -131.5t-10.5 -146.5q0 -41 2 -61h-94v-705h-432v1520h432zM727 760q0 175 52.5 320t154.5 251.5t248.5 164.5t333.5 58q169 0 313 -50.5t250.5 -151t165.5 -250.5t59 -342t-59 -341.5t-165.5 -250t-250 -152t-313.5 -51.5
q-167 0 -310.5 51.5t-251 153t-167.5 251.5t-60 339zM1171 762q0 -125 36 -229t113.5 -165t195.5 -61q115 0 229.5 86.5t114.5 368.5q0 94 -20 176t-61 143t-106.5 96t-156.5 35q-118 0 -195.5 -60.5t-113.5 -163t-36 -226.5z" />
    <glyph glyph-name="afii10049" unicode="&#xdf;" horiz-adv-x="1561" 
d="M1006 1180h-183q-75 0 -144 -13t-123 -62.5t-54 -152.5q0 -89 67.5 -157t233.5 -68q63 0 123 8v-340q-35 -17 -101 -64t-139.5 -133.5t-114.5 -197.5h-458q55 140 124 234t137.5 150t135.5 91v10q-180 18 -316.5 134.5t-136.5 336.5q0 189 74.5 307t184 172.5t211.5 69.5
t202 15h709v-1520h-432v1180z" />
    <glyph glyph-name="afii10049" unicode="&#x42f;" horiz-adv-x="1561" 
d="M1006 1180h-183q-75 0 -144 -13t-123 -62.5t-54 -152.5q0 -89 67.5 -157t233.5 -68q63 0 123 8v-340q-35 -17 -101 -64t-139.5 -133.5t-114.5 -197.5h-458q55 140 124 234t137.5 150t135.5 91v10q-180 18 -316.5 134.5t-136.5 336.5q0 189 74.5 307t184 172.5t211.5 69.5
t202 15h709v-1520h-432v1180z" />
    <glyph glyph-name="afii10065" unicode="&#xe0;" horiz-adv-x="1325" 
d="M211 874v308q201 24 364 24q242 0 438.5 -112.5t196.5 -448.5v-645h-665q-170 0 -324.5 67t-154.5 295q0 98 46.5 186.5t155 144t279.5 55.5h160q38 -72 38 -201v-47h-112q-71 0 -119.5 -20.5t-48.5 -86.5q0 -45 34.5 -71.5t90.5 -26.5h233v272q0 95 -16.5 165
t-90.5 124.5t-224 54.5q-137 0 -281 -37z" />
    <glyph glyph-name="afii10065" unicode="&#x430;" horiz-adv-x="1325" 
d="M211 874v308q201 24 364 24q242 0 438.5 -112.5t196.5 -448.5v-645h-665q-170 0 -324.5 67t-154.5 295q0 98 46.5 186.5t155 144t279.5 55.5h160q38 -72 38 -201v-47h-112q-71 0 -119.5 -20.5t-48.5 -86.5q0 -45 34.5 -71.5t90.5 -26.5h233v272q0 95 -16.5 165
t-90.5 124.5t-224 54.5q-137 0 -281 -37z" />
    <glyph glyph-name="afii10066" unicode="&#xe1;" horiz-adv-x="1294" 
d="M66 494q0 113 36.5 207t111.5 165.5t183.5 110.5t249.5 39q162 0 295 -58.5t210 -176t77 -287.5q0 -129 -44 -227t-123.5 -163t-186.5 -98t-228 -33q-141 0 -249.5 39t-183.5 111t-111.5 165.5t-36.5 205.5zM465 494q0 -125 56.5 -175.5t125.5 -50.5t125.5 50.5
t56.5 175.5q0 122 -55.5 174.5t-126.5 52.5q-41 0 -82 -18.5t-70.5 -70.5t-29.5 -138zM410 1069v-12q-75 -26 -126.5 -51t-101.5 -72q-116 98 -116 252q0 169 110 241t250 72q54 0 101.5 -9t105.5 -24q98 -24 147 -24q82 0 82 45q0 19 -14 33q39 10 86 10q107 0 170 -58
t63 -157q0 -69 -36.5 -122.5t-99 -82.5t-136.5 -29q-71 0 -211 33q-141 35 -170 35q-58 0 -81 -25.5t-23 -54.5z" />
    <glyph glyph-name="afii10066" unicode="&#x431;" horiz-adv-x="1294" 
d="M66 494q0 113 36.5 207t111.5 165.5t183.5 110.5t249.5 39q162 0 295 -58.5t210 -176t77 -287.5q0 -129 -44 -227t-123.5 -163t-186.5 -98t-228 -33q-141 0 -249.5 39t-183.5 111t-111.5 165.5t-36.5 205.5zM465 494q0 -125 56.5 -175.5t125.5 -50.5t125.5 50.5
t56.5 175.5q0 122 -55.5 174.5t-126.5 52.5q-41 0 -82 -18.5t-70.5 -70.5t-29.5 -138zM410 1069v-12q-75 -26 -126.5 -51t-101.5 -72q-116 98 -116 252q0 169 110 241t250 72q54 0 101.5 -9t105.5 -24q98 -24 147 -24q82 0 82 45q0 19 -14 33q39 10 86 10q107 0 170 -58
t63 -157q0 -69 -36.5 -122.5t-99 -82.5t-136.5 -29q-71 0 -211 33q-141 35 -170 35q-58 0 -81 -25.5t-23 -54.5z" />
    <glyph glyph-name="afii10067" unicode="&#xe2;" horiz-adv-x="1343" 
d="M123 1180h782q192 0 272 -91.5t80 -216.5q0 -116 -63 -176.5t-156 -81.5v-4q59 -12 113 -46.5t90.5 -99.5t36.5 -159q0 -134 -77.5 -202.5t-160.5 -85.5t-149 -17h-768v1180zM590 498v227h151q117 0 117 90q0 23 -11 44t-36.5 34.5t-69.5 13.5h-231v-635h235q62 0 98 28
t36 83q0 71 -46.5 93t-87.5 22h-155z" />
    <glyph glyph-name="afii10067" unicode="&#x432;" horiz-adv-x="1343" 
d="M123 1180h782q192 0 272 -91.5t80 -216.5q0 -116 -63 -176.5t-156 -81.5v-4q59 -12 113 -46.5t90.5 -99.5t36.5 -159q0 -134 -77.5 -202.5t-160.5 -85.5t-149 -17h-768v1180zM590 498v227h151q117 0 117 90q0 23 -11 44t-36.5 34.5t-69.5 13.5h-231v-635h235q62 0 98 28
t36 83q0 71 -46.5 93t-87.5 22h-155z" />
    <glyph glyph-name="afii10068" unicode="&#xe3;" horiz-adv-x="965" 
d="M965 1180v-308h-455v-872h-387v1180h842z" />
    <glyph glyph-name="afii10068" unicode="&#x433;" horiz-adv-x="965" 
d="M965 1180v-308h-455v-872h-387v1180h842z" />
    <glyph glyph-name="afii10069" unicode="&#xe4;" horiz-adv-x="1380" 
d="M1208 1180v-873h148v-307h-1356v307h821v578h-61q-264 0 -264 -336q0 -24 8.5 -81l13.5 -93h-383q-26 124 -26 256q0 234 87 356t201.5 157.5t237.5 35.5h573z" />
    <glyph glyph-name="afii10069" unicode="&#x434;" horiz-adv-x="1380" 
d="M1208 1180v-873h148v-307h-1356v307h821v578h-61q-264 0 -264 -336q0 -24 8.5 -81l13.5 -93h-383q-26 124 -26 256q0 234 87 356t201.5 157.5t237.5 35.5h573z" />
    <glyph glyph-name="afii10070" unicode="&#xe5;" horiz-adv-x="1354" 
d="M1178 322v-308q-184 -41 -381 -41q-168 0 -304.5 44t-233 128t-145 198.5t-48.5 254.5q0 196 85 333.5t232.5 206t333.5 68.5q142 0 273 -46.5t226 -190t95 -406.5q0 -49 -2 -74h-729q-37 52 -37 123q0 62 12 105h383q-6 194 -213 194q-132 0 -197 -80.5t-65 -214.5
q0 -94 37.5 -171t132.5 -127t256 -50q149 0 289 54z" />
    <glyph glyph-name="afii10070" unicode="&#x435;" horiz-adv-x="1354" 
d="M1178 322v-308q-184 -41 -381 -41q-168 0 -304.5 44t-233 128t-145 198.5t-48.5 254.5q0 196 85 333.5t232.5 206t333.5 68.5q142 0 273 -46.5t226 -190t95 -406.5q0 -49 -2 -74h-729q-37 52 -37 123q0 62 12 105h383q-6 194 -213 194q-132 0 -197 -80.5t-65 -214.5
q0 -94 37.5 -171t132.5 -127t256 -50q149 0 289 54z" />
    <glyph glyph-name="afii10072" unicode="&#xe6;" horiz-adv-x="1812" 
d="M713 0v528q-83 53 -99 64q-46 -72 -89 -176t-71 -211.5t-42 -204.5h-387q20 125 55.5 254.5t100.5 272t157 268.5q-101 80 -186.5 184t-126.5 201h432q104 -198 256 -281v281h387v-281q66 37 130.5 100.5t125.5 180.5h432q-39 -96 -125.5 -201t-187.5 -184
q131 -178 207.5 -392.5t105.5 -402.5h-387q-16 102 -44 208t-69 207t-90 177q-27 -19 -98 -64v-528h-387z" />
    <glyph glyph-name="afii10072" unicode="&#x436;" horiz-adv-x="1812" 
d="M713 0v528q-83 53 -99 64q-46 -72 -89 -176t-71 -211.5t-42 -204.5h-387q20 125 55.5 254.5t100.5 272t157 268.5q-101 80 -186.5 184t-126.5 201h432q104 -198 256 -281v281h387v-281q66 37 130.5 100.5t125.5 180.5h432q-39 -96 -125.5 -201t-187.5 -184
q131 -178 207.5 -392.5t105.5 -402.5h-387q-16 102 -44 208t-69 207t-90 177q-27 -19 -98 -64v-528h-387z" />
    <glyph glyph-name="afii10073" unicode="&#xe7;" horiz-adv-x="971" 
d="M57 872v308q163 26 322 26q189 0 296 -52t145 -123t38 -144q0 -99 -54.5 -170.5t-137.5 -102.5v-4q95 -24 167 -93t72 -204q0 -149 -96 -224t-209 -95.5t-223 -20.5q-70 0 -97 1.5t-73 7l-150 18.5v305l95.5 -20t71 -13t75.5 -4q94 0 151.5 22.5t57.5 92.5q0 40 -29 74.5
t-100 34.5h-184v227h186q106 0 106 92q0 100 -165 100q-53 0 -136.5 -13t-128.5 -26z" />
    <glyph glyph-name="afii10073" unicode="&#x437;" horiz-adv-x="971" 
d="M57 872v308q163 26 322 26q189 0 296 -52t145 -123t38 -144q0 -99 -54.5 -170.5t-137.5 -102.5v-4q95 -24 167 -93t72 -204q0 -149 -96 -224t-209 -95.5t-223 -20.5q-70 0 -97 1.5t-73 7l-150 18.5v305l95.5 -20t71 -13t75.5 -4q94 0 151.5 22.5t57.5 92.5q0 40 -29 74.5
t-100 34.5h-184v227h186q106 0 106 92q0 100 -165 100q-53 0 -136.5 -13t-128.5 -26z" />
    <glyph glyph-name="afii10074" unicode="&#xe8;" horiz-adv-x="1360" 
d="M510 1180v-293q73 89 166 169.5t174 123.5h387v-1180h-387v805q-195 -134 -340 -363v-442h-387v1180h387z" />
    <glyph glyph-name="afii10074" unicode="&#x438;" horiz-adv-x="1360" 
d="M510 1180v-293q73 89 166 169.5t174 123.5h387v-1180h-387v805q-195 -134 -340 -363v-442h-387v1180h387z" />
    <glyph glyph-name="afii10075" unicode="&#xe9;" horiz-adv-x="1360" 
d="M510 1180v-293q73 89 166 169.5t174 123.5h387v-1180h-387v805q-195 -134 -340 -363v-442h-387v1180h387zM469 1520h422q-12 -71 -43 -134t-74.5 -101t-93.5 -38q-73 0 -131.5 80.5t-79.5 192.5z" />
    <glyph glyph-name="afii10075" unicode="&#x439;" horiz-adv-x="1360" 
d="M510 1180v-293q73 89 166 169.5t174 123.5h387v-1180h-387v805q-195 -134 -340 -363v-442h-387v1180h387zM469 1520h422q-12 -71 -43 -134t-74.5 -101t-93.5 -38q-73 0 -131.5 80.5t-79.5 192.5z" />
    <glyph glyph-name="afii10076" unicode="&#xea;" horiz-adv-x="1260" 
d="M510 1180v-277q83 44 167.5 122.5t121.5 154.5h430q-51 -117 -135.5 -215t-182.5 -172q83 -104 157.5 -240t123.5 -278.5t68 -274.5h-402q-11 65 -35.5 154t-53.5 162t-69 146.5t-86 129.5q-46 -29 -104 -55v-537h-387v1180h387z" />
    <glyph glyph-name="afii10076" unicode="&#x43a;" horiz-adv-x="1260" 
d="M510 1180v-277q83 44 167.5 122.5t121.5 154.5h430q-51 -117 -135.5 -215t-182.5 -172q83 -104 157.5 -240t123.5 -278.5t68 -274.5h-402q-11 65 -35.5 154t-53.5 162t-69 146.5t-86 129.5q-46 -29 -104 -55v-537h-387v1180h387z" />
    <glyph glyph-name="afii10077" unicode="&#xeb;" horiz-adv-x="1284" 
d="M774 0v885q-132 0 -220.5 -107t-88.5 -362q0 -109 10 -210t37 -206h-406q-12 60 -21 136.5t-14 165t-5 142.5q0 247 72.5 400.5t177.5 224t202 91t176 20.5h467v-1180h-387z" />
    <glyph glyph-name="afii10077" unicode="&#x43b;" horiz-adv-x="1284" 
d="M774 0v885q-132 0 -220.5 -107t-88.5 -362q0 -109 10 -210t37 -206h-406q-12 60 -21 136.5t-14 165t-5 142.5q0 247 72.5 400.5t177.5 224t202 91t176 20.5h467v-1180h-387z" />
    <glyph glyph-name="afii10078" unicode="&#xec;" horiz-adv-x="1851" 
d="M510 0h-387v1180h387q83 -68 166.5 -171.5t145.5 -212.5t102 -210h4q60 157 146 286t157 203t110 105h388v-1180h-388v653q-61 -53 -118 -142.5t-98 -189t-64 -190.5h-270q-23 90 -68 194.5t-101 192t-112 135.5v-653z" />
    <glyph glyph-name="afii10078" unicode="&#x43c;" horiz-adv-x="1851" 
d="M510 0h-387v1180h387q83 -68 166.5 -171.5t145.5 -212.5t102 -210h4q60 157 146 286t157 203t110 105h388v-1180h-388v653q-61 -53 -118 -142.5t-98 -189t-64 -190.5h-270q-23 90 -68 194.5t-101 192t-112 135.5v-653z" />
    <glyph glyph-name="afii10079" unicode="&#xed;" horiz-adv-x="1407" 
d="M1284 1180v-1180h-387v500h-307v295h307v385h387zM510 1180v-1180h-387v1180h387z" />
    <glyph glyph-name="afii10079" unicode="&#x43d;" horiz-adv-x="1407" 
d="M1284 1180v-1180h-387v500h-307v295h307v385h387zM510 1180v-1180h-387v1180h387z" />
    <glyph glyph-name="afii10080" unicode="&#xee;" horiz-adv-x="1380" 
d="M690 -27q-182 0 -323.5 72.5t-221 212.5t-79.5 332t79.5 332t221 212t323.5 72q183 0 324.5 -72t221 -212t79.5 -332t-79.5 -332t-220.5 -212.5t-325 -72.5zM690 268q94 0 159.5 72.5t65.5 249.5t-65 249t-160 72q-84 0 -154.5 -64.5t-70.5 -256.5q0 -191 70.5 -256.5
t154.5 -65.5z" />
    <glyph glyph-name="afii10080" unicode="&#x43e;" horiz-adv-x="1380" 
d="M690 -27q-182 0 -323.5 72.5t-221 212.5t-79.5 332t79.5 332t221 212t323.5 72q183 0 324.5 -72t221 -212t79.5 -332t-79.5 -332t-220.5 -212.5t-325 -72.5zM690 268q94 0 159.5 72.5t65.5 249.5t-65 249t-160 72q-84 0 -154.5 -64.5t-70.5 -256.5q0 -191 70.5 -256.5
t154.5 -65.5z" />
    <glyph glyph-name="afii10081" unicode="&#xef;" horiz-adv-x="1393" 
d="M1270 1180v-1180h-387v885h-373v-885h-387v1180h1147z" />
    <glyph glyph-name="afii10081" unicode="&#x43f;" horiz-adv-x="1393" 
d="M1270 1180v-1180h-387v885h-373v-885h-387v1180h1147z" />
    <glyph glyph-name="afii10082" unicode="&#xf0;" horiz-adv-x="1346" 
d="M123 1180h565q102 0 229.5 -29t245 -151t117.5 -367q0 -168 -70.5 -295t-188 -193.5t-255.5 -66.5q-92 0 -178 12v295q42 -12 84 -12q75 0 142 52t67 193q0 267 -283 267h-88v-953h-387v1248z" />
    <glyph glyph-name="afii10082" unicode="&#x440;" horiz-adv-x="1346" 
d="M123 1180h565q102 0 229.5 -29t245 -151t117.5 -367q0 -168 -70.5 -295t-188 -193.5t-255.5 -66.5q-92 0 -178 12v295q42 -12 84 -12q75 0 142 52t67 193q0 267 -283 267h-88v-953h-387v1248z" />
    <glyph glyph-name="afii10083" unicode="&#xf1;" horiz-adv-x="958" 
d="M907 1180v-308q-78 39 -168 39q-116 0 -195 -75t-79 -252q0 -188 90.5 -252t192.5 -64q55 0 96 8.5t86 30.5v-307q-55 -16 -97 -21.5t-106 -5.5q-170 0 -296 48t-207 133.5t-119.5 195.5t-38.5 234q0 119 32.5 227t106 198t197.5 143.5t294 53.5q123 0 211 -26z" />
    <glyph glyph-name="afii10083" unicode="&#x441;" horiz-adv-x="958" 
d="M907 1180v-308q-78 39 -168 39q-116 0 -195 -75t-79 -252q0 -188 90.5 -252t192.5 -64q55 0 96 8.5t86 30.5v-307q-55 -16 -97 -21.5t-106 -5.5q-170 0 -296 48t-207 133.5t-119.5 195.5t-38.5 234q0 119 32.5 227t106 198t197.5 143.5t294 53.5q123 0 211 -26z" />
    <glyph glyph-name="afii10084" unicode="&#xf2;" horiz-adv-x="1067" 
d="M1067 1180v-308h-340v-872h-387v872h-340v308h1067z" />
    <glyph glyph-name="afii10084" unicode="&#x442;" horiz-adv-x="1067" 
d="M1067 1180v-308h-340v-872h-387v872h-340v308h1067z" />
    <glyph glyph-name="afii10085" unicode="&#xf3;" horiz-adv-x="1186" 
d="M803 1180h383q-30 -408 -188 -691.5t-390.5 -420t-482.5 -136.5h-100v324q200 2 329 80q-169 191 -244.5 394t-84.5 450h383q24 -236 86 -373.5t139 -216.5q76 105 117.5 265.5t52.5 324.5z" />
    <glyph glyph-name="afii10085" unicode="&#x443;" horiz-adv-x="1186" 
d="M803 1180h383q-30 -408 -188 -691.5t-390.5 -420t-482.5 -136.5h-100v324q200 2 329 80q-169 191 -244.5 394t-84.5 450h383q24 -236 86 -373.5t139 -216.5q76 105 117.5 265.5t52.5 324.5z" />
    <glyph glyph-name="afii10086" unicode="&#xf4;" horiz-adv-x="1907" 
d="M760 1520h387v-340h94q320 0 460 -160t140 -402q0 -222 -106.5 -339.5t-241.5 -153t-266 -35.5v295q85 0 150 53t65 199q0 90 -57.5 169t-237.5 79v-953h-387v953q-180 0 -237.5 -81.5t-57.5 -166.5q0 -144 66.5 -198t148.5 -54v-295q-85 0 -183 16.5t-198.5 70.5
t-166.5 162.5t-66 278.5q0 217 127 389.5t473 172.5h94v340z" />
    <glyph glyph-name="afii10086" unicode="&#x444;" horiz-adv-x="1907" 
d="M760 1520h387v-340h94q320 0 460 -160t140 -402q0 -222 -106.5 -339.5t-241.5 -153t-266 -35.5v295q85 0 150 53t65 199q0 90 -57.5 169t-237.5 79v-953h-387v953q-180 0 -237.5 -81.5t-57.5 -166.5q0 -144 66.5 -198t148.5 -54v-295q-85 0 -183 16.5t-198.5 70.5
t-166.5 162.5t-66 278.5q0 217 127 389.5t473 172.5h94v340z" />
    <glyph glyph-name="afii10087" unicode="&#xf5;" horiz-adv-x="1169" 
d="M1169 0h-389q-16 107 -62.5 190.5t-131.5 171.5q-163 -155 -197 -362h-389q40 175 133.5 337.5t224.5 264.5q-119 119 -203.5 268.5t-113.5 309.5h375q5 -69 43.5 -152.5t126.5 -177.5q86 95 123.5 176t44.5 154h374q-28 -159 -112.5 -309.5t-204.5 -268.5
q89 -70 160.5 -166.5t121.5 -208.5t76 -227z" />
    <glyph glyph-name="afii10087" unicode="&#x445;" horiz-adv-x="1169" 
d="M1169 0h-389q-16 107 -62.5 190.5t-131.5 171.5q-163 -155 -197 -362h-389q40 175 133.5 337.5t224.5 264.5q-119 119 -203.5 268.5t-113.5 309.5h375q5 -69 43.5 -152.5t126.5 -177.5q86 95 123.5 176t44.5 154h374q-28 -159 -112.5 -309.5t-204.5 -268.5
q89 -70 160.5 -166.5t121.5 -208.5t76 -227z" />
    <glyph glyph-name="afii10088" unicode="&#xf6;" horiz-adv-x="1348" 
d="M166 1180h385q-3 -16 -21 -98t-35 -178t-23.5 -159t-6.5 -129q0 -140 50.5 -207.5t121 -84.5t170.5 -17h516v-307h-616q-112 0 -209.5 13.5t-197 68t-167 178t-67.5 328.5q0 107 16 213t35.5 188.5t48.5 190.5zM1188 1180v-805h-387v805h387z" />
    <glyph glyph-name="afii10088" unicode="&#x446;" horiz-adv-x="1348" 
d="M166 1180h385q-3 -16 -21 -98t-35 -178t-23.5 -159t-6.5 -129q0 -140 50.5 -207.5t121 -84.5t170.5 -17h516v-307h-616q-112 0 -209.5 13.5t-197 68t-167 178t-67.5 328.5q0 107 16 213t35.5 188.5t48.5 190.5zM1188 1180v-805h-387v805h387z" />
    <glyph glyph-name="afii10089" unicode="&#xf7;" horiz-adv-x="1303" 
d="M100 1180h387q-9 -47 -19.5 -136.5t-10.5 -144.5q0 -313 202 -313q35 0 54 4v-295q-74 -23 -156 -23q-166 0 -333 102t-167 431q0 49 5 111.5t16.5 141.5t21.5 122zM1180 1180v-1180h-387v1180h387z" />
    <glyph glyph-name="afii10089" unicode="&#x447;" horiz-adv-x="1303" 
d="M100 1180h387q-9 -47 -19.5 -136.5t-10.5 -144.5q0 -313 202 -313q35 0 54 4v-295q-74 -23 -156 -23q-166 0 -333 102t-167 431q0 49 5 111.5t16.5 141.5t21.5 122zM1180 1180v-1180h-387v1180h387z" />
    <glyph glyph-name="afii10090" unicode="&#xf8;" horiz-adv-x="1968" 
d="M166 1180h385l-24.5 -115t-32 -164.5t-23 -155t-6.5 -129.5q0 -145 52 -215.5t123.5 -88t166.5 -17.5h651v885h387v-1180h-1138q-112 0 -209.5 13.5t-197 68t-167 178t-67.5 328.5q0 107 16 213t35.5 188.5t48.5 190.5zM1188 1180v-818h-387v818h387z" />
    <glyph glyph-name="afii10090" unicode="&#x448;" horiz-adv-x="1968" 
d="M166 1180h385l-24.5 -115t-32 -164.5t-23 -155t-6.5 -129.5q0 -145 52 -215.5t123.5 -88t166.5 -17.5h651v885h387v-1180h-1138q-112 0 -209.5 13.5t-197 68t-167 178t-67.5 328.5q0 107 16 213t35.5 188.5t48.5 190.5zM1188 1180v-818h-387v818h387z" />
    <glyph glyph-name="afii10091" unicode="&#xf9;" horiz-adv-x="2005" 
d="M166 1180h385q-3 -16 -21 -98t-35 -178t-23.5 -159t-6.5 -129q0 -140 50.5 -207.5t121 -84.5t170.5 -17h1173v-307h-1273q-112 0 -209.5 13.5t-197 68t-167 178t-67.5 328.5q0 107 16 213t35.5 188.5t48.5 190.5zM1188 1180v-805h-387v805h387zM1845 1180v-805h-387v805
h387z" />
    <glyph glyph-name="afii10091" unicode="&#x449;" horiz-adv-x="2005" 
d="M166 1180h385q-3 -16 -21 -98t-35 -178t-23.5 -159t-6.5 -129q0 -140 50.5 -207.5t121 -84.5t170.5 -17h1173v-307h-1273q-112 0 -209.5 13.5t-197 68t-167 178t-67.5 328.5q0 107 16 213t35.5 188.5t48.5 190.5zM1188 1180v-805h-387v805h387zM1845 1180v-805h-387v805
h387z" />
    <glyph glyph-name="afii10092" unicode="&#xfa;" horiz-adv-x="1364" 
d="M547 1180v-881h174q186 0 186 150q0 50 -22 84.5t-61.5 53.5t-86.5 19q-62 0 -110 -16v295q84 16 178 16q159 0 272.5 -55.5t171.5 -160t58 -241.5q0 -275 -169.5 -359.5t-332.5 -84.5h-645v872h-135v308h522z" />
    <glyph glyph-name="afii10092" unicode="&#x44a;" horiz-adv-x="1364" 
d="M547 1180v-881h174q186 0 186 150q0 50 -22 84.5t-61.5 53.5t-86.5 19q-62 0 -110 -16v295q84 16 178 16q159 0 272.5 -55.5t171.5 -160t58 -241.5q0 -275 -169.5 -359.5t-332.5 -84.5h-645v872h-135v308h522z" />
    <glyph glyph-name="afii10093" unicode="&#xfb;" horiz-adv-x="1874" 
d="M510 1180v-881h174q186 0 186 150q0 72 -48 114.5t-122 42.5q-62 0 -110 -16v295q81 16 178 16q158 0 272 -55.5t172 -159.5t58 -242q0 -187 -121 -315.5t-381 -128.5h-645v1180h387zM1751 1180v-1180h-387v1180h387z" />
    <glyph glyph-name="afii10093" unicode="&#x44b;" horiz-adv-x="1874" 
d="M510 1180v-881h174q186 0 186 150q0 72 -48 114.5t-122 42.5q-62 0 -110 -16v295q81 16 178 16q158 0 272 -55.5t172 -159.5t58 -242q0 -187 -121 -315.5t-381 -128.5h-645v1180h387zM1751 1180v-1180h-387v1180h387z" />
    <glyph glyph-name="afii10094" unicode="&#xfc;" horiz-adv-x="1327" 
d="M510 1180v-881h174q186 0 186 150q0 72 -48 114.5t-122 42.5q-62 0 -110 -16v295q81 16 178 16q158 0 272 -55.5t172 -159.5t58 -242q0 -187 -121 -315.5t-381 -128.5h-645v1180h387z" />
    <glyph glyph-name="afii10094" unicode="&#x44c;" horiz-adv-x="1327" 
d="M510 1180v-881h174q186 0 186 150q0 72 -48 114.5t-122 42.5q-62 0 -110 -16v295q81 16 178 16q158 0 272 -55.5t172 -159.5t58 -242q0 -187 -121 -315.5t-381 -128.5h-645v1180h387z" />
    <glyph glyph-name="afii10095" unicode="&#xfd;" horiz-adv-x="1057" 
d="M49 885v295q118 26 262 26q146 0 268.5 -37.5t215.5 -112.5t144.5 -188t51.5 -256q0 -131 -43 -246t-129 -204t-215 -139t-293 -50q-136 0 -262 27v295q75 -27 168 -27q98 0 176 24.5t128 74.5t65 125h-406v227h406q-25 94 -119 143t-217 49q-97 0 -201 -26z" />
    <glyph glyph-name="afii10095" unicode="&#x44d;" horiz-adv-x="1057" 
d="M49 885v295q118 26 262 26q146 0 268.5 -37.5t215.5 -112.5t144.5 -188t51.5 -256q0 -131 -43 -246t-129 -204t-215 -139t-293 -50q-136 0 -262 27v295q75 -27 168 -27q98 0 176 24.5t128 74.5t65 125h-406v227h406q-25 94 -119 143t-217 49q-97 0 -201 -26z" />
    <glyph glyph-name="afii10096" unicode="&#xfe;" horiz-adv-x="1966" 
d="M510 1180v-383h131q-13 -44 -20 -80t-7 -76q0 -78 7 -143h-111v-498h-387v1180h387zM1296 -27q-118 0 -226.5 36.5t-194 113.5t-134.5 194t-49 273t49 273.5t133.5 193t191.5 112.5t230 37q175 0 313 -73t215 -212t77 -331q0 -191 -77.5 -331.5t-215 -213t-312.5 -72.5z
M1071 590q0 -175 66.5 -248.5t158.5 -73.5q85 0 155.5 65.5t70.5 256.5q0 192 -70.5 256.5t-155.5 64.5q-93 0 -159 -73t-66 -248z" />
    <glyph glyph-name="afii10096" unicode="&#x44e;" horiz-adv-x="1966" 
d="M510 1180v-383h131q-13 -44 -20 -80t-7 -76q0 -78 7 -143h-111v-498h-387v1180h387zM1296 -27q-118 0 -226.5 36.5t-194 113.5t-134.5 194t-49 273t49 273.5t133.5 193t191.5 112.5t230 37q175 0 313 -73t215 -212t77 -331q0 -191 -77.5 -331.5t-215 -213t-312.5 -72.5z
M1071 590q0 -175 66.5 -248.5t158.5 -73.5q85 0 155.5 65.5t70.5 256.5q0 192 -70.5 256.5t-155.5 64.5q-93 0 -159 -73t-66 -248z" />
    <glyph glyph-name="afii10097" unicode="&#xff;" horiz-adv-x="1323" 
d="M813 883h-137q-205 0 -205 -156q0 -82 55 -121t138 -39q36 0 69 6v-243q-120 -29 -190 -123t-86 -207h-408q33 138 123 251t205 163v8q-129 33 -217 112t-88 224q0 106 44 203t146.5 158t267.5 61h670v-1180h-387v883z" />
    <glyph glyph-name="afii10097" unicode="&#x44f;" horiz-adv-x="1323" 
d="M813 883h-137q-205 0 -205 -156q0 -82 55 -121t138 -39q36 0 69 6v-243q-120 -29 -190 -123t-86 -207h-408q33 138 123 251t205 163v8q-129 33 -217 112t-88 224q0 106 44 203t146.5 158t267.5 61h670v-1180h-387v883z" />
  </font>
</defs>
</svg>
